<?xml version="1.0" encoding="UTF-8"?>
<!DOCTYPE svg PUBLIC "-//W3C//DTD SVG 1.1//EN" "http://www.w3.org/Graphics/SVG/1.1/DTD/svg11.dtd">
<!-- Creator: CorelDRAW -->
<svg xmlns="http://www.w3.org/2000/svg" xml:space="preserve" width="15.748in" height="19.685in" version="1.1" style="shape-rendering:geometricPrecision; text-rendering:geometricPrecision; image-rendering:optimizeQuality; fill-rule:evenodd; clip-rule:evenodd"
viewBox="0 0 15746.83 19683.53"
 xmlns:xlink="http://www.w3.org/1999/xlink"
 xmlns:xodm="http://www.corel.com/coreldraw/odm/2003">
 <defs>
  <style type="text/css">
   <![CDATA[
    .fil1 {fill:#FEFEFE}
    .fil0 {fill:#00A2E9}
   ]]>
  </style>
 </defs>
 <g id="Layer_x0020_1">
  <metadata id="CorelCorpID_0Corel-Layer"/>
  <rect class="fil0" x="-0" y="-0.01" width="15746.83" height="19683.53"/>
  <path class="fil1" d="M9138.16 9483.4c56.37,-203.03 -174.21,-571.07 -616.58,-501.19 -477.28,109.46 -282.84,742.03 -1176.34,836.7 -844,5.88 -985.44,-556.39 -1113.8,-846.15 -5.22,-11.87 -15.84,-18.08 -25.23,-18.92 -9.6,835.24 681.39,1518.86 1512.43,1518.86 651.42,0 1206.57,-411.85 1419.52,-989.3zm1577.52 7248.88c-4.88,38.11 -9.21,65.03 -13.07,80.85 -3.79,15.9 -11.24,30.36 -22.34,43.46 -11.1,13.1 -25.17,23.17 -42.13,30.2 -16.96,7.03 -36.1,10.55 -57.43,10.55 -20.29,0 -38,-3.35 -53.29,-9.99 -15.29,-6.63 -27.04,-16.54 -35.09,-29.8 -8.13,-13.26 -12.11,-27.72 -12.03,-43.3 0.17,-15.66 2.71,-42.98 7.7,-81.97l8.31 -64.87c4.88,-38.11 9.21,-65.03 13.07,-80.85 3.79,-15.9 11.24,-30.36 22.34,-43.46 11.11,-13.11 25.18,-23.17 42.14,-30.2 16.96,-7.03 36.1,-10.55 57.43,-10.55 20.29,0 38,3.35 53.28,9.99 15.29,6.63 27.04,16.53 35.09,29.8 8.13,13.26 12.11,27.72 12.03,43.3 -0.17,15.66 -2.71,42.98 -7.7,81.97l-8.31 64.87zm-82.79 -124.55c2.25,-17.58 2.74,-28.84 1.45,-33.79 -1.29,-4.87 -4.89,-7.35 -10.8,-7.35 -5.04,0 -9.13,2 -12.35,5.99 -3.14,3.91 -6,15.66 -8.5,35.15l-22.66 176.95c-2.81,21.97 -3.67,35.55 -2.57,40.66 1.09,5.2 4.84,7.75 11.23,7.75 6.55,0 11.16,-2.96 13.75,-8.87 2.59,-5.91 5.28,-20.05 8.14,-42.34l22.31 -174.16zm-269.56 42.26l-98.74 0 4.41 -34.43c2.78,-21.73 3.65,-35.31 2.5,-40.74 -1.13,-5.51 -5.18,-8.23 -12.05,-8.23 -5.91,0 -10.28,2.31 -13.04,7.03 -2.75,4.63 -5.34,16.7 -7.81,36.03l-23.29 181.83c-2.17,16.94 -2.57,28.2 -1.1,33.55 1.47,5.35 5.36,8.07 11.75,8.07 7.03,0 12.13,-3.04 15.47,-9.11 3.25,-6.07 6.05,-17.98 8.31,-35.63l5.75 -44.9 -19.17 0 7.37 -57.52 115.04 0 -26.03 203.24 -62.07 0 -5.63 -27.16c-8.22,11.74 -17.81,20.53 -28.71,26.44 -10.98,5.91 -23.42,8.87 -37.25,8.87 -16.53,0 -31.44,-4 -44.87,-12.06 -13.35,-8.07 -23.02,-17.98 -28.93,-29.88 -6,-11.83 -9.03,-24.29 -9.28,-37.31 -0.17,-13.02 1.38,-32.6 4.72,-58.64l14.43 -112.64c4.63,-36.19 9.92,-62.48 15.93,-78.85 6.02,-16.46 19.13,-31.48 39.34,-45.14 20.2,-13.66 44.96,-20.45 74.28,-20.45 28.84,0 51.97,5.91 69.46,17.81 17.49,11.9 28.15,25.97 31.81,42.26 3.66,16.38 3.5,40.02 -0.48,71.18l-2.1 16.38zm-363.85 0l-98.74 0 4.41 -34.43c2.78,-21.73 3.65,-35.31 2.5,-40.74 -1.13,-5.51 -5.18,-8.23 -12.05,-8.23 -5.91,0 -10.28,2.31 -13.04,7.03 -2.75,4.63 -5.34,16.7 -7.81,36.03l-23.29 181.83c-2.17,16.94 -2.57,28.2 -1.1,33.55 1.47,5.35 5.36,8.07 11.75,8.07 7.03,0 12.13,-3.04 15.47,-9.11 3.25,-6.07 6.05,-17.98 8.31,-35.63l5.75 -44.9 -19.17 0 7.37 -57.52 115.04 0 -26.03 203.24 -62.07 0 -5.63 -27.16c-8.22,11.74 -17.81,20.53 -28.71,26.44 -10.98,5.91 -23.42,8.87 -37.25,8.87 -16.53,0 -31.44,-4 -44.87,-12.06 -13.35,-8.07 -23.02,-17.98 -28.93,-29.88 -6,-11.83 -9.03,-24.29 -9.28,-37.31 -0.17,-13.02 1.38,-32.6 4.72,-58.64l14.43 -112.64c4.63,-36.19 9.92,-62.48 15.93,-78.85 6.02,-16.46 19.13,-31.48 39.34,-45.14 20.2,-13.66 44.96,-20.45 74.28,-20.45 28.84,0 51.97,5.91 69.46,17.81 17.49,11.9 28.15,25.97 31.81,42.26 3.66,16.38 3.5,40.02 -0.48,71.18l-2.1 16.38zm-346.97 -139.97l-48.56 379.16 -86.28 0 -29.21 -172.4 -22.08 172.4 -82.45 0 48.56 -379.16 82.45 0 33.26 170.72 21.87 -170.72 82.44 0zm-358.98 0l-48.56 379.16 -98.74 0 48.56 -379.16 98.74 0zm-281.89 0l-38.86 303.42 59.44 0 -9.7 75.73 -158.18 0 48.56 -379.16 98.74 0zm-263.86 222.25c-4.88,38.11 -9.21,65.03 -13.07,80.85 -3.79,15.9 -11.24,30.36 -22.34,43.46 -11.1,13.1 -25.17,23.17 -42.13,30.2 -16.96,7.03 -36.1,10.55 -57.43,10.55 -20.29,0 -38,-3.35 -53.29,-9.99 -15.29,-6.63 -27.04,-16.54 -35.09,-29.8 -8.13,-13.26 -12.11,-27.72 -12.03,-43.3 0.17,-15.66 2.71,-42.98 7.7,-81.97l8.31 -64.87c4.88,-38.11 9.21,-65.03 13.07,-80.85 3.79,-15.9 11.24,-30.36 22.34,-43.46 11.11,-13.11 25.18,-23.17 42.14,-30.2 16.96,-7.03 36.1,-10.55 57.43,-10.55 20.29,0 38,3.35 53.28,9.99 15.29,6.63 27.04,16.53 35.09,29.8 8.13,13.26 12.11,27.72 12.03,43.3 -0.17,15.66 -2.71,42.98 -7.7,81.97l-8.31 64.87zm-82.79 -124.55c2.25,-17.58 2.74,-28.84 1.45,-33.79 -1.29,-4.87 -4.89,-7.35 -10.8,-7.35 -5.04,0 -9.13,2 -12.35,5.99 -3.14,3.91 -6,15.66 -8.5,35.15l-22.66 176.95c-2.81,21.97 -3.67,35.55 -2.57,40.66 1.09,5.2 4.84,7.75 11.23,7.75 6.55,0 11.16,-2.96 13.75,-8.87 2.59,-5.91 5.28,-20.05 8.14,-42.34l22.31 -174.16zm-477.8 -97.71l98.11 0c30.99,0 54.18,2.4 69.53,7.27 15.36,4.79 26.97,14.62 34.91,29.32 7.93,14.78 9.77,38.51 5.57,71.26 -2.83,22.13 -8.25,37.55 -16.31,46.26 -8.07,8.79 -22.67,15.42 -43.72,20.13 22.18,5.19 36.59,13.74 43.21,25.64 6.61,11.98 8.34,30.28 5.17,55.05l-4.5 35.15c-3.28,25.64 -8.66,44.58 -16.08,56.96 -7.41,12.3 -17.76,20.77 -31.13,25.32 -13.37,4.55 -39.86,6.79 -79.48,6.79l-113.84 0 48.56 -379.16zm90.45 64.71l-10.8 84.36c4.17,-0.16 7.38,-0.24 9.69,-0.24 9.43,0 15.81,-2.4 18.97,-7.11 3.25,-4.79 6.28,-18.46 9.15,-40.91 1.52,-11.9 1.55,-20.21 0,-25 -1.55,-4.72 -3.96,-7.75 -7.23,-9.03 -3.28,-1.2 -9.9,-1.92 -19.79,-2.07zm-18.36 143.32l-13.63 106.41c13.64,-0.48 22.63,-2.63 26.88,-6.55 4.26,-3.91 7.33,-13.58 9.29,-28.92l4.54 -35.47c2.09,-16.3 1.67,-26.12 -1.23,-29.64 -2.92,-3.44 -11.54,-5.35 -25.86,-5.83zm-237.21 14.22c-4.88,38.11 -9.21,65.03 -13.07,80.85 -3.79,15.9 -11.24,30.36 -22.34,43.46 -11.1,13.1 -25.17,23.17 -42.13,30.2 -16.96,7.03 -36.1,10.55 -57.43,10.55 -20.29,0 -38,-3.35 -53.29,-9.99 -15.29,-6.63 -27.04,-16.54 -35.09,-29.8 -8.13,-13.26 -12.11,-27.72 -12.03,-43.3 0.17,-15.66 2.71,-42.98 7.7,-81.97l8.31 -64.87c4.88,-38.11 9.21,-65.03 13.07,-80.85 3.79,-15.9 11.24,-30.36 22.34,-43.46 11.11,-13.11 25.18,-23.17 42.14,-30.2 16.96,-7.03 36.1,-10.55 57.43,-10.55 20.29,0 38,3.35 53.28,9.99 15.29,6.63 27.04,16.53 35.09,29.8 8.13,13.26 12.11,27.72 12.03,43.3 -0.17,15.66 -2.71,42.98 -7.7,81.97l-8.31 64.87zm-82.79 -124.55c2.25,-17.58 2.74,-28.84 1.45,-33.79 -1.29,-4.87 -4.89,-7.35 -10.8,-7.35 -5.04,0 -9.13,2 -12.35,5.99 -3.14,3.91 -6,15.66 -8.5,35.15l-22.66 176.95c-2.81,21.97 -3.67,35.55 -2.57,40.66 1.09,5.2 4.84,7.75 11.23,7.75 6.55,0 11.16,-2.96 13.75,-8.87 2.59,-5.91 5.28,-20.05 8.14,-42.34l22.31 -174.16zm-471.25 -97.71l69.74 0c46.5,0 77.75,1.76 93.74,5.35 16,3.59 28.25,12.78 36.74,27.56 8.5,14.7 10.68,38.27 6.54,70.54 -3.78,29.48 -9.99,49.29 -18.64,59.44 -8.57,10.15 -23.81,16.22 -45.63,18.22 18.87,4.87 31.22,11.35 36.89,19.49 5.68,8.07 8.87,15.58 9.59,22.37 0.81,6.79 -0.79,25.49 -4.7,56.08l-12.82 100.1 -91.55 0 16.16 -126.14c2.6,-20.29 2.61,-32.84 0.04,-37.71 -2.5,-4.87 -10.5,-7.27 -24,-7.27l-21.92 171.12 -98.74 0 48.56 -379.16zm90.45 64.71l-10.8 84.36c11.02,0 18.89,-1.52 23.67,-4.55 4.78,-3.04 8.29,-12.94 10.42,-29.64l2.67 -20.85c1.55,-12.06 0.4,-19.97 -3.35,-23.73 -3.76,-3.75 -11.35,-5.59 -22.61,-5.59zm-430.66 -64.71l99.3 0c26.84,0 47.19,2.08 61.1,6.31 13.84,4.24 23.93,10.31 30.19,18.22 6.25,7.99 9.88,17.66 11.07,28.92 1.11,11.35 0.14,28.84 -2.9,52.57l-4.22 32.99c-3.09,24.12 -7.83,41.78 -14.27,52.81 -6.37,11.11 -16.66,19.65 -30.68,25.56 -14.1,5.91 -31.89,8.87 -53.38,8.87l-26.44 0 -19.59 152.91 -98.74 0 48.56 -379.16zm90.45 64.71l-12.37 96.59c2.78,0.16 5.16,0.24 7.16,0.24 9.03,0 15.55,-2.24 19.63,-6.71 4,-4.39 6.94,-13.66 8.74,-27.72l4 -31.24c1.66,-12.94 0.74,-21.41 -2.83,-25.32 -3.5,-3.91 -11.64,-5.83 -24.34,-5.83zm-347.89 -64.71l7.84 379.16 -100.74 0 3.37 -68.07 -35.55 0 -14.07 68.07 -102.02 0 98.58 -379.16 142.6 0zm-83.58 243.98c0.79,-42.98 2.65,-96.19 5.51,-159.7 -19.08,72.86 -32.04,126.07 -38.99,159.7l33.47 0zm-189.36 -243.98l-9.7 75.73 -58 0 -38.86 303.42 -98.74 0 38.86 -303.42 -58.48 0 9.7 -75.73 215.22 0zm-363.56 222.25c-4.88,38.11 -9.21,65.03 -13.07,80.85 -3.79,15.9 -11.24,30.36 -22.34,43.46 -11.1,13.1 -25.17,23.17 -42.13,30.2 -16.96,7.03 -36.1,10.55 -57.43,10.55 -20.29,0 -38,-3.35 -53.29,-9.99 -15.29,-6.63 -27.04,-16.54 -35.09,-29.8 -8.13,-13.26 -12.11,-27.72 -12.03,-43.3 0.17,-15.66 2.71,-42.98 7.7,-81.97l8.31 -64.87c4.88,-38.11 9.21,-65.03 13.07,-80.85 3.79,-15.9 11.24,-30.36 22.34,-43.46 11.11,-13.11 25.18,-23.17 42.14,-30.2 16.96,-7.03 36.1,-10.55 57.43,-10.55 20.29,0 38,3.35 53.28,9.99 15.29,6.63 27.04,16.53 35.09,29.8 8.13,13.26 12.11,27.72 12.03,43.3 -0.17,15.66 -2.71,42.98 -7.7,81.97l-8.31 64.87zm-82.79 -124.55c2.25,-17.58 2.74,-28.84 1.45,-33.79 -1.29,-4.87 -4.89,-7.35 -10.8,-7.35 -5.04,0 -9.13,2 -12.35,5.99 -3.14,3.91 -6,15.66 -8.5,35.15l-22.66 176.95c-2.81,21.97 -3.67,35.55 -2.57,40.66 1.09,5.2 4.84,7.75 11.23,7.75 6.55,0 11.16,-2.96 13.75,-8.87 2.59,-5.91 5.28,-20.05 8.14,-42.34l22.31 -174.16zm-226.55 -97.71l-78.25 171.2 34.96 207.95 -101.62 0 -19.21 -162.5 -20.81 162.5 -98.74 0 48.56 -379.16 98.74 0 -18.87 147.32 63.21 -147.32 92.03 0zm8491.37 -580.38l-99.98 0c2.41,-18.78 3.76,-30.62 3.95,-35.44 0.2,-4.91 -1.3,-9.05 -4.51,-12.35 -3.13,-3.3 -7.82,-4.99 -13.99,-4.99 -5.16,0 -9.59,1.61 -13.38,4.74 -3.7,3.13 -6.15,7.11 -7.3,12.1 -1.15,4.99 -2.68,14.97 -4.6,29.94l-8.18 63.86c6.52,-10.66 15.08,-18.7 25.66,-24.02 10.66,-5.33 23.27,-7.95 37.81,-7.95 18.36,0 33.95,4.99 46.73,14.88 12.86,9.9 20.22,21.74 22.25,35.61 2.03,13.87 1.57,32.65 -1.45,56.25l-4.08 31.89c-3.6,28.08 -7.38,48.98 -11.25,62.68 -3.95,13.7 -11.24,26.39 -22.12,37.98 -10.8,11.67 -24.81,20.72 -41.88,27.15 -17.15,6.43 -36.51,9.64 -58.16,9.64 -26.98,0 -48.58,-3.72 -64.8,-11.16 -16.22,-7.44 -28.13,-18.1 -35.73,-32.06 -7.52,-13.96 -11.14,-28.59 -10.69,-43.98 0.35,-15.31 3.41,-45.17 9.08,-89.41l7.11 -55.48c6.11,-47.71 10.88,-79.68 14.38,-95.75 3.5,-16.07 11.13,-31.38 23.1,-45.68 11.91,-14.38 27.08,-25.2 45.43,-32.4 18.35,-7.19 38.93,-10.74 61.77,-10.74 28.08,0 50.59,4.57 67.45,13.62 16.85,9.13 28.06,21.99 33.73,38.49 5.66,16.58 6.87,37.47 3.66,62.59zm-115.97 124.84c1.81,-14.12 1.45,-23.85 -1.01,-29.1 -2.53,-5.33 -7.36,-7.95 -14.55,-7.95 -7.02,0 -12.5,2.54 -16.36,7.53 -3.94,5.07 -6.81,14.88 -8.68,29.52l-9.27 72.4c-2.27,17.68 -2.22,29.18 0.21,34.68 2.35,5.42 7.16,8.12 14.35,8.12 4.31,0 9.15,-2.11 14.35,-6.34 5.18,-4.15 9,-15.48 11.37,-33.92l9.6 -74.94zm-255.82 -96l-17.14 133.81c-3.9,30.45 -8.42,52.52 -13.5,66.4 -5.09,13.96 -13.59,26.9 -25.55,38.99 -11.94,12.01 -25.58,20.72 -40.97,25.97 -15.31,5.33 -32.06,7.95 -50.24,7.95 -23.94,0 -43.46,-2.79 -58.66,-8.29 -15.1,-5.58 -26.6,-14.21 -34.58,-25.88 -7.89,-11.76 -12.98,-24.1 -15.3,-37.04 -2.31,-13.03 -1.61,-33.67 2.01,-61.92l17.93 -139.99c4.72,-36.88 11.47,-64.45 20.17,-82.81 8.69,-18.35 23.18,-33.07 43.55,-44.15 20.28,-11.08 43.91,-16.58 70.8,-16.58 21.99,0 41.13,3.8 57.48,11.5 16.35,7.7 28.09,17.09 35.22,28.16 7.2,11.08 11.45,23.51 12.72,37.39 1.27,13.87 -0.04,36.03 -3.94,66.48zm-95.68 -33.58c2.73,-21.31 3.42,-34.6 2,-40.01 -1.35,-5.33 -5.82,-8.03 -13.52,-8.03 -7.44,0 -12.72,2.88 -15.81,8.54 -3.18,5.67 -6.05,18.86 -8.7,39.5l-25.05 195.56c-2.98,23.26 -3.68,37.3 -2,42.04 1.58,4.82 6.1,7.19 13.62,7.19 7.44,0 12.63,-2.79 15.72,-8.46 3,-5.59 5.8,-18.19 8.31,-37.81l25.43 -198.52zm-360.97 85.68l-10.32 80.61c-3.79,29.6 -8.09,51.26 -12.83,65.13 -4.73,13.79 -12.72,26.64 -23.98,38.65 -11.26,12.01 -24.91,20.81 -40.96,26.56 -16.03,5.66 -33.91,8.54 -53.7,8.54 -22.16,0 -40.62,-2.45 -55.31,-7.28 -14.76,-4.91 -25.75,-12.26 -32.95,-22.08 -7.28,-9.89 -11.84,-21.82 -13.69,-35.78 -1.85,-13.96 -0.94,-34.93 2.64,-62.85l10.8 -84.33c3.92,-30.62 10.27,-54.47 19.08,-71.73 8.8,-17.17 22.49,-30.96 40.99,-41.36 18.5,-10.4 41.17,-15.65 67.9,-15.65 22.42,0 41.26,3.39 56.56,10.07 15.22,6.68 26.53,15.39 33.95,26.14 7.33,10.74 11.92,21.82 13.67,33.24 1.76,11.42 1.14,28.76 -1.85,52.1zm-96.8 -24.78c2.15,-16.83 2.59,-27.49 1.36,-31.8 -1.3,-4.4 -4.91,-6.6 -10.91,-6.6 -6.01,0 -10.27,2.2 -12.86,6.6 -2.5,4.31 -4.88,14.97 -7.03,31.8l-19.01 148.45c-1.99,15.56 -2.28,25.71 -0.93,30.36 1.42,4.74 5.01,7.11 10.85,7.11 6.01,0 10.17,-2.11 12.66,-6.43 2.5,-4.31 4.61,-13.53 6.43,-27.75l19.44 -151.74zm-235.7 -163.25l-51.42 401.43 -91.35 0 -30.92 -182.53 -23.38 182.53 -87.29 0 51.42 -401.43 87.29 0 35.21 180.75 23.15 -180.75 87.29 0zm-455.89 0l-51.42 401.43 -99.98 0 27.6 -215.52c3.99,-31.13 5.63,-49.91 4.99,-56.16 -0.72,-6.26 -4.16,-11.08 -10.43,-14.3 -6.27,-3.21 -20.95,-4.82 -44.04,-4.82l-9.9 0 5.97 -46.61c49.7,-10.32 89.15,-31.72 118.33,-64.03l58.87 0zm-501.14 0l-11.58 90.42c9.65,-7.95 19.72,-13.96 30.21,-17.93 10.49,-3.98 21.49,-6.01 32.91,-6.01 17.51,0 31.82,4.48 43.03,13.37 11.12,8.96 17.33,19.2 18.63,30.87 1.21,11.67 -0.17,32.99 -4.12,63.86l-29.06 226.85 -99.98 0 29.65 -231.51c2.45,-19.12 3.1,-31.46 1.85,-36.88 -1.24,-5.5 -5.12,-8.2 -11.8,-8.2 -6.18,0 -10.68,2.79 -13.6,8.46 -2.83,5.58 -5.36,16.75 -7.5,33.41l-30.06 234.72 -99.98 0 51.42 -401.43 99.98 0zm-383.39 199.96l-93.89 0 2.83 -22.08c3.26,-25.46 8.73,-45.08 16.35,-58.96 7.6,-13.79 21,-25.97 40.03,-36.54 19.03,-10.57 42.64,-15.9 70.97,-15.9 33.84,0 58.61,6.01 74.24,18.02 15.64,11.92 24.08,26.64 25.31,44.07 1.24,17.42 -1.59,53.37 -8.56,107.76l-21.15 165.11 -97.44 0 3.76 -29.35c-7.61,11.84 -16.68,20.64 -27.08,26.56 -10.4,5.92 -22.28,8.88 -35.73,8.88 -17.51,0 -32.95,-4.91 -46.33,-14.72 -13.37,-9.89 -17.89,-31.38 -13.63,-64.62l3.46 -27.06c3.15,-24.62 9.19,-41.36 18.12,-50.33 8.93,-8.97 29.55,-19.37 61.85,-31.21 34.56,-12.94 53.26,-21.57 56.2,-26.05 2.86,-4.48 5.2,-13.53 6.97,-27.32 2.2,-17.17 2.36,-28.34 0.41,-33.58 -1.87,-5.16 -5.85,-7.78 -11.86,-7.78 -6.85,0 -11.37,2.2 -13.53,6.6 -2.24,4.31 -4.55,15.74 -6.9,34.09l-4.41 34.43zm26.2 45.08c-17.66,11.76 -28.31,21.57 -31.87,29.52 -3.64,7.95 -6.36,19.29 -8.27,34.17 -2.19,17.09 -2.48,27.99 -0.84,32.99 1.56,4.99 5.73,7.44 12.41,7.44 6.35,0 10.65,-1.94 13.1,-5.84 2.44,-3.89 4.68,-14.04 6.8,-30.62l8.67 -67.66zm-217.11 -245.04l-51.42 401.43 -99.98 0 3.07 -23.94c-10.93,10.06 -21.95,17.51 -33.16,22.5 -11.3,4.99 -22.7,7.53 -34.29,7.53 -15.56,0 -28.58,-4.06 -38.94,-12.26 -10.37,-8.21 -16.51,-17.68 -18.35,-28.42 -1.84,-10.74 -1.2,-28.25 1.92,-52.61l19.73 -154.03c3.24,-25.29 7.14,-43.22 11.71,-53.8 4.57,-10.57 13.2,-19.88 25.82,-27.91 12.62,-8.03 27,-12.01 43.07,-12.01 12.43,0 23.47,2.28 33.3,6.77 9.74,4.48 18.27,11.16 25.58,20.21l11.97 -93.47 99.98 0zm-119.87 155.3c1.54,-12.01 1.56,-20.13 -0.02,-24.27 -1.59,-4.15 -5.47,-6.18 -11.64,-6.18 -6.09,0 -10.39,1.86 -12.98,5.58 -2.59,3.72 -4.66,12.01 -6.31,24.87l-20.64 161.13c-1.71,13.36 -1.82,22.16 -0.34,26.39 1.49,4.23 5.03,6.35 10.78,6.35 6.51,0 11.22,-2.37 13.94,-7.11 2.8,-4.65 5.37,-16.16 7.72,-34.51l19.5 -152.25zm-372.64 -82.72l-5.44 30.53c8.83,-12.18 18.89,-21.31 30.16,-27.49 11.27,-6.09 23.76,-9.14 37.54,-9.14 17.17,0 30.69,4.06 40.56,12.18 9.89,8.03 15.59,18.27 17.14,30.62 1.56,12.26 0.54,32.82 -3.15,61.58l-29.53 230.57 -99.98 0 29.17 -227.78c2.89,-22.58 3.91,-36.46 3.02,-41.36 -0.8,-4.99 -4.63,-7.44 -11.48,-7.44 -7.19,0 -12.04,2.88 -14.63,8.54 -2.51,5.75 -5.39,20.98 -8.57,45.76l-28.47 222.29 -99.98 0 42.12 -328.86 101.5 0zm-222.28 -72.57l-51.42 401.43 -104.54 0 51.42 -401.43 104.54 0zm-461.72 72.57l-5.44 30.53c8.83,-12.18 18.89,-21.31 30.16,-27.49 11.27,-6.09 23.76,-9.14 37.54,-9.14 17.17,0 30.69,4.06 40.56,12.18 9.89,8.03 15.59,18.27 17.14,30.62 1.56,12.26 0.54,32.82 -3.15,61.58l-29.53 230.57 -99.98 0 29.17 -227.78c2.89,-22.58 3.91,-36.46 3.02,-41.36 -0.8,-4.99 -4.63,-7.44 -11.48,-7.44 -7.19,0 -12.04,2.88 -14.63,8.54 -2.51,5.75 -5.39,20.98 -8.57,45.76l-28.47 222.29 -99.98 0 42.12 -328.86 101.5 0zm-375.62 127.38l-93.89 0 2.83 -22.08c3.26,-25.46 8.73,-45.08 16.35,-58.96 7.6,-13.79 21,-25.97 40.03,-36.54 19.03,-10.57 42.64,-15.9 70.97,-15.9 33.84,0 58.61,6.01 74.24,18.02 15.64,11.92 24.08,26.64 25.31,44.07 1.24,17.42 -1.59,53.37 -8.56,107.76l-21.15 165.11 -97.44 0 3.76 -29.35c-7.61,11.84 -16.68,20.64 -27.08,26.56 -10.4,5.92 -22.28,8.88 -35.73,8.88 -17.51,0 -32.95,-4.91 -46.33,-14.72 -13.37,-9.89 -17.89,-31.38 -13.63,-64.62l3.46 -27.06c3.15,-24.62 9.19,-41.36 18.12,-50.33 8.93,-8.97 29.55,-19.37 61.85,-31.21 34.56,-12.94 53.26,-21.57 56.2,-26.05 2.86,-4.48 5.2,-13.53 6.97,-27.32 2.2,-17.17 2.36,-28.34 0.41,-33.58 -1.87,-5.16 -5.85,-7.78 -11.86,-7.78 -6.85,0 -11.37,2.2 -13.53,6.6 -2.24,4.31 -4.55,15.74 -6.9,34.09l-4.41 34.43zm26.2 45.08c-17.66,11.76 -28.31,21.57 -31.87,29.52 -3.64,7.95 -6.36,19.29 -8.27,34.17 -2.19,17.09 -2.48,27.99 -0.84,32.99 1.56,4.99 5.73,7.44 12.41,7.44 6.35,0 10.65,-1.94 13.1,-5.84 2.44,-3.89 4.68,-14.04 6.8,-30.62l8.67 -67.66zm-352.27 -172.47l-5.5 29.1c10.48,-11.84 21.42,-20.64 32.91,-26.47 11.49,-5.83 23.62,-8.71 36.3,-8.71 15.56,0 28.48,4.15 38.74,12.52 10.18,8.37 16.05,18.01 17.44,28.93 1.39,10.91 0.46,29.43 -2.89,55.57l-17.75 138.64c-3.83,29.94 -8.33,51.17 -13.51,63.86 -5.17,12.61 -13.74,22.75 -25.7,30.28 -11.96,7.53 -25.71,11.25 -41.28,11.25 -12.35,0 -23.48,-2.88 -33.31,-8.71 -9.83,-5.84 -18.36,-14.46 -25.69,-25.97l-9.64 75.28 -99.98 0 48.1 -375.55 101.75 0zm16.42 95.67c2.61,-20.39 3.42,-32.65 2.45,-36.97 -0.89,-4.31 -4.76,-6.43 -11.61,-6.43 -6.68,0 -11.23,2.45 -13.81,7.44 -2.57,4.91 -5.05,16.92 -7.48,35.95l-17.46 136.35c-2.54,19.79 -3.11,32.23 -1.8,37.13 1.39,4.99 5.39,7.44 12.07,7.44 6.52,0 10.78,-2.28 12.98,-6.85 2.18,-4.48 4.36,-15.56 6.6,-33.07l18.06 -141zm-392.29 31.72l-93.89 0 2.83 -22.08c3.26,-25.46 8.73,-45.08 16.35,-58.96 7.6,-13.79 21,-25.97 40.03,-36.54 19.03,-10.57 42.64,-15.9 70.97,-15.9 33.84,0 58.61,6.01 74.24,18.02 15.64,11.92 24.08,26.64 25.31,44.07 1.24,17.42 -1.59,53.37 -8.56,107.76l-21.15 165.11 -97.44 0 3.76 -29.35c-7.61,11.84 -16.68,20.64 -27.08,26.56 -10.4,5.92 -22.28,8.88 -35.73,8.88 -17.51,0 -32.95,-4.91 -46.33,-14.72 -13.37,-9.89 -17.89,-31.38 -13.63,-64.62l3.46 -27.06c3.15,-24.62 9.19,-41.36 18.12,-50.33 8.93,-8.97 29.55,-19.37 61.85,-31.21 34.56,-12.94 53.26,-21.57 56.2,-26.05 2.86,-4.48 5.2,-13.53 6.97,-27.32 2.2,-17.17 2.36,-28.34 0.41,-33.58 -1.87,-5.16 -5.85,-7.78 -11.86,-7.78 -6.85,0 -11.37,2.2 -13.53,6.6 -2.24,4.31 -4.55,15.74 -6.9,34.09l-4.41 34.43zm26.2 45.08c-17.66,11.76 -28.31,21.57 -31.87,29.52 -3.64,7.95 -6.36,19.29 -8.27,34.17 -2.19,17.09 -2.48,27.99 -0.84,32.99 1.56,4.99 5.73,7.44 12.41,7.44 6.35,0 10.65,-1.94 13.1,-5.84 2.44,-3.89 4.68,-14.04 6.8,-30.62l8.67 -67.66zm-272.76 -172.47l-9.1 43.31c18.62,-31.13 41.86,-47.54 69.76,-49.4l-14.82 115.71c-18.35,0 -32.2,2.45 -41.47,7.44 -9.27,4.99 -15.39,11.84 -18.56,20.73 -3.07,8.79 -6.7,29.18 -10.79,61.15l-16.64 129.92 -99.98 0 42.12 -328.86 99.47 0zm-373.59 127.38l-93.89 0 2.83 -22.08c3.26,-25.46 8.73,-45.08 16.35,-58.96 7.6,-13.79 21,-25.97 40.03,-36.54 19.03,-10.57 42.64,-15.9 70.97,-15.9 33.84,0 58.61,6.01 74.24,18.02 15.64,11.92 24.08,26.64 25.31,44.07 1.24,17.42 -1.59,53.37 -8.56,107.76l-21.15 165.11 -97.44 0 3.76 -29.35c-7.61,11.84 -16.68,20.64 -27.08,26.56 -10.4,5.92 -22.28,8.88 -35.73,8.88 -17.51,0 -32.95,-4.91 -46.33,-14.72 -13.37,-9.89 -17.89,-31.38 -13.63,-64.62l3.46 -27.06c3.15,-24.62 9.19,-41.36 18.12,-50.33 8.93,-8.97 29.55,-19.37 61.85,-31.21 34.56,-12.94 53.26,-21.57 56.2,-26.05 2.86,-4.48 5.2,-13.53 6.97,-27.32 2.2,-17.17 2.36,-28.34 0.41,-33.58 -1.87,-5.16 -5.85,-7.78 -11.86,-7.78 -6.85,0 -11.37,2.2 -13.53,6.6 -2.24,4.31 -4.55,15.74 -6.9,34.09l-4.41 34.43zm26.2 45.08c-17.66,11.76 -28.31,21.57 -31.87,29.52 -3.64,7.95 -6.36,19.29 -8.27,34.17 -2.19,17.09 -2.48,27.99 -0.84,32.99 1.56,4.99 5.73,7.44 12.41,7.44 6.35,0 10.65,-1.94 13.1,-5.84 2.44,-3.89 4.68,-14.04 6.8,-30.62l8.67 -67.66zm-220.49 -245.04l-51.42 401.43 -104.54 0 21.58 -168.49 -30.45 0 -21.58 168.49 -104.54 0 51.42 -401.43 104.54 0 -18.4 143.62 30.45 0 18.4 -143.62 104.54 0zm-615.48 199.96l-93.89 0 2.83 -22.08c3.26,-25.46 8.73,-45.08 16.35,-58.96 7.6,-13.79 21,-25.97 40.03,-36.54 19.03,-10.57 42.64,-15.9 70.97,-15.9 33.84,0 58.61,6.01 74.24,18.02 15.64,11.92 24.08,26.64 25.31,44.07 1.24,17.42 -1.59,53.37 -8.56,107.76l-21.15 165.11 -97.44 0 3.76 -29.35c-7.61,11.84 -16.68,20.64 -27.08,26.56 -10.4,5.92 -22.28,8.88 -35.73,8.88 -17.51,0 -32.95,-4.91 -46.33,-14.72 -13.37,-9.89 -17.89,-31.38 -13.63,-64.62l3.46 -27.06c3.15,-24.62 9.19,-41.36 18.12,-50.33 8.93,-8.97 29.55,-19.37 61.85,-31.21 34.56,-12.94 53.26,-21.57 56.2,-26.05 2.86,-4.48 5.2,-13.53 6.97,-27.32 2.2,-17.17 2.36,-28.34 0.41,-33.58 -1.87,-5.16 -5.85,-7.78 -11.86,-7.78 -6.85,0 -11.37,2.2 -13.53,6.6 -2.24,4.31 -4.55,15.74 -6.9,34.09l-4.41 34.43zm26.2 45.08c-17.66,11.76 -28.31,21.57 -31.87,29.52 -3.64,7.95 -6.36,19.29 -8.27,34.17 -2.19,17.09 -2.48,27.99 -0.84,32.99 1.56,4.99 5.73,7.44 12.41,7.44 6.35,0 10.65,-1.94 13.1,-5.84 2.44,-3.89 4.68,-14.04 6.8,-30.62l8.67 -67.66zm-208.56 -172.47l-59.15 237.93c-9.4,37.72 -16.5,63.44 -21.3,77.14 -4.8,13.7 -11.33,25.04 -19.57,33.92 -8.17,8.96 -18.9,15.48 -32.04,19.71 -13.14,4.23 -33.63,6.34 -61.29,6.34l-60.65 0 6.76 -52.78c15.57,0 25.64,-0.76 30.25,-2.37 4.68,-1.52 7.42,-5.08 8.11,-10.49 0.35,-2.7 -0.3,-14.12 -1.85,-34.42l-19.59 -274.98 90.76 0 4.33 222.37 44.64 -222.37 90.59 0zm-327.67 -72.57l-6.7 52.27 -103.02 0 6.7 -52.27 103.02 0zm-9.29 72.57l-42.12 328.86 -103.02 0 42.12 -328.86 103.02 0zm-276.58 0l-9.1 43.31c18.62,-31.13 41.86,-47.54 69.76,-49.4l-14.82 115.71c-18.35,0 -32.2,2.45 -41.47,7.44 -9.27,4.99 -15.39,11.84 -18.56,20.73 -3.07,8.79 -6.7,29.18 -10.79,61.15l-16.64 129.92 -99.98 0 42.12 -328.86 99.47 0zm-238.3 75.62l-104.54 0 4.67 -36.45c2.94,-23.01 3.86,-37.39 2.65,-43.14 -1.2,-5.83 -5.48,-8.71 -12.75,-8.71 -6.26,0 -10.88,2.45 -13.81,7.44 -2.91,4.91 -5.65,17.68 -8.27,38.15l-24.66 192.51c-2.3,17.93 -2.72,29.86 -1.17,35.52 1.56,5.66 5.67,8.54 12.44,8.54 7.44,0 12.85,-3.22 16.38,-9.64 3.44,-6.43 6.41,-19.03 8.8,-37.73l6.09 -47.54 -20.3 0 7.8 -60.9 121.8 0 -27.56 215.18 -65.72 0 -5.96 -28.76c-8.7,12.43 -18.86,21.74 -30.4,28 -11.63,6.26 -24.8,9.39 -39.43,9.39 -17.51,0 -33.29,-4.23 -47.51,-12.77 -14.13,-8.54 -24.38,-19.03 -30.63,-31.64 -6.35,-12.51 -9.56,-25.71 -9.83,-39.5 -0.18,-13.79 1.46,-34.51 4.99,-62.09l15.28 -119.26c4.91,-38.32 10.5,-66.14 16.86,-83.49 6.38,-17.42 20.25,-33.32 41.65,-47.79 21.39,-14.46 47.6,-21.65 78.64,-21.65 30.54,0 55.02,6.26 73.54,18.86 18.51,12.6 29.8,27.49 33.68,44.74 3.87,17.34 3.71,42.37 -0.52,75.36l-2.22 17.34zm-705.62 -75.62l-5.53 31.3c9.37,-12.44 19.79,-21.83 31.33,-28 11.46,-6.26 24.13,-9.39 37.83,-9.39 26.73,0 46.11,12.44 58.31,37.39 9.97,-12.44 20.64,-21.83 32.01,-28 11.38,-6.26 23.45,-9.39 36.39,-9.39 16.92,0 30.51,4.15 40.53,12.44 10.11,8.2 15.92,18.35 17.51,30.36 1.6,11.92 0.72,31.38 -2.74,58.36l-29.95 233.79 -96.93 0 27.46 -214.42c3.6,-28.08 4.89,-45.42 3.8,-52.1 -1.01,-6.68 -4.97,-10.07 -11.99,-10.07 -7.11,0 -12.09,3.3 -14.97,9.9 -2.96,6.6 -6.21,24.02 -9.83,52.27l-27.46 214.42 -96.93 0 26.76 -208.92c4.13,-32.23 5.85,-51.59 5.07,-58.02 -0.7,-6.43 -4.68,-9.64 -11.79,-9.64 -4.48,0 -8.42,1.69 -12.07,5.07 -3.56,3.39 -5.78,7.53 -6.75,12.44 -0.96,4.82 -2.46,15.22 -4.48,31.04l-29.21 228.04 -96.93 0 42.12 -328.86 98.45 0zm-226.67 0l-42.12 328.86 -101.76 0 5.29 -27.4c-8.36,11.16 -17.98,19.54 -28.84,25.12 -10.87,5.58 -22.9,8.37 -36.09,8.37 -14.97,0 -27.15,-2.62 -36.37,-7.95 -9.22,-5.24 -15.6,-12.26 -19.21,-21.06 -3.53,-8.79 -5.33,-17.85 -5.29,-27.4 0.11,-9.47 1.94,-28.34 5.57,-56.67l28.42 -221.86 99.98 0 -28.67 223.81c-3.28,25.63 -4.46,40.77 -3.47,45.59 0.91,4.82 4.92,7.19 11.85,7.19 7.36,0 12.16,-2.45 14.15,-7.44 2.07,-4.91 4.79,-20.89 8.24,-47.79l28.35 -221.36 99.98 0zm-402.44 0l-9.1 43.31c18.62,-31.13 41.86,-47.54 69.76,-49.4l-14.82 115.71c-18.35,0 -32.2,2.45 -41.47,7.44 -9.27,4.99 -15.39,11.84 -18.56,20.73 -3.07,8.79 -6.7,29.18 -10.79,61.15l-16.64 129.92 -99.98 0 42.12 -328.86 99.47 0zm-245.23 170.01l-129.92 0 -9.13 71.3c-1.91,14.89 -2.04,24.53 -0.48,28.84 1.65,4.31 5.52,6.43 11.7,6.43 7.7,0 13.23,-2.88 16.49,-8.54 3.36,-5.75 6.05,-16.83 8.15,-33.24l5.57 -43.48 94.9 0 -3.12 24.36c-2.61,20.38 -5.88,36.03 -9.82,46.95 -4.02,10.91 -11.52,22.58 -22.5,35.02 -10.98,12.43 -24.18,21.74 -39.45,28 -15.25,6.17 -33.76,9.3 -55.58,9.3 -21.14,0 -39.45,-3.05 -54.9,-9.22 -15.38,-6.09 -26.9,-14.46 -34.59,-25.12 -7.68,-10.66 -12.35,-22.42 -14.17,-35.27 -1.83,-12.77 -1.22,-31.38 1.92,-55.91l12.29 -96c3.68,-28.76 10.48,-51.43 20.4,-68.09 9.9,-16.58 24.23,-29.35 43.03,-38.15 18.9,-8.88 39.76,-13.28 62.77,-13.28 28.08,0 50.57,5.33 67.48,15.99 16.9,10.66 27.95,24.78 33.06,42.37 5.11,17.51 5.58,42.29 1.5,74.18l-5.58 43.56zm-93.15 -53.29l3.08 -24.02c2.19,-17.09 2.65,-28 1.43,-32.99 -1.22,-4.99 -4.72,-7.44 -10.47,-7.44 -7.11,0 -11.77,2.11 -14.01,6.35 -2.23,4.23 -4.53,15.56 -6.9,34.09l-3.08 24.02 29.94 0zm-445.77 -189.3l105.13 0c28.42,0 49.96,2.2 64.7,6.68 14.65,4.48 25.33,10.91 31.96,19.28 6.61,8.46 10.46,18.7 11.73,30.62 1.17,12.01 0.15,30.54 -3.07,55.66l-4.48 34.93c-3.27,25.54 -8.29,44.24 -15.11,55.91 -6.75,11.76 -17.63,20.81 -32.47,27.06 -14.93,6.26 -33.77,9.39 -56.52,9.39l-28 0 -20.73 161.89 -104.54 0 51.42 -401.43zm95.77 68.51l-13.1 102.26c2.94,0.17 5.46,0.26 7.58,0.26 9.56,0 16.46,-2.37 20.79,-7.11 4.23,-4.65 7.35,-14.46 9.26,-29.35l4.24 -33.07c1.75,-13.7 0.79,-22.67 -2.99,-26.81 -3.7,-4.15 -12.32,-6.17 -25.77,-6.17zm-315.76 -68.51l-6.7 52.27 -103.02 0 6.7 -52.27 103.02 0zm-9.29 72.57l-42.12 328.86 -103.02 0 42.12 -328.86 103.02 0zm-356.09 0l-5.5 29.1c10.48,-11.84 21.42,-20.64 32.91,-26.47 11.49,-5.83 23.62,-8.71 36.3,-8.71 15.56,0 28.48,4.15 38.74,12.52 10.18,8.37 16.05,18.01 17.44,28.93 1.39,10.91 0.46,29.43 -2.89,55.57l-17.75 138.64c-3.83,29.94 -8.33,51.17 -13.51,63.86 -5.17,12.61 -13.74,22.75 -25.7,30.28 -11.96,7.53 -25.71,11.25 -41.28,11.25 -12.35,0 -23.48,-2.88 -33.31,-8.71 -9.83,-5.84 -18.36,-14.46 -25.69,-25.97l-9.64 75.28 -99.98 0 48.1 -375.55 101.75 0zm16.42 95.67c2.61,-20.39 3.42,-32.65 2.45,-36.97 -0.89,-4.31 -4.76,-6.43 -11.61,-6.43 -6.68,0 -11.23,2.45 -13.81,7.44 -2.57,4.91 -5.05,16.92 -7.48,35.95l-17.46 136.35c-2.54,19.79 -3.11,32.23 -1.8,37.13 1.39,4.99 5.39,7.44 12.07,7.44 6.52,0 10.78,-2.28 12.98,-6.85 2.18,-4.48 4.36,-15.56 6.6,-33.07l18.06 -141zm-392.29 31.72l-93.89 0 2.83 -22.08c3.26,-25.46 8.73,-45.08 16.35,-58.96 7.6,-13.79 21,-25.97 40.03,-36.54 19.03,-10.57 42.64,-15.9 70.97,-15.9 33.84,0 58.61,6.01 74.24,18.02 15.64,11.92 24.08,26.64 25.31,44.07 1.24,17.42 -1.59,53.37 -8.56,107.76l-21.15 165.11 -97.44 0 3.76 -29.35c-7.61,11.84 -16.68,20.64 -27.08,26.56 -10.4,5.92 -22.28,8.88 -35.73,8.88 -17.51,0 -32.95,-4.91 -46.33,-14.72 -13.37,-9.89 -17.89,-31.38 -13.63,-64.62l3.46 -27.06c3.15,-24.62 9.19,-41.36 18.12,-50.33 8.93,-8.97 29.55,-19.37 61.85,-31.21 34.56,-12.94 53.26,-21.57 56.2,-26.05 2.86,-4.48 5.2,-13.53 6.97,-27.32 2.2,-17.17 2.36,-28.34 0.41,-33.58 -1.87,-5.16 -5.85,-7.78 -11.86,-7.78 -6.85,0 -11.37,2.2 -13.53,6.6 -2.24,4.31 -4.55,15.74 -6.9,34.09l-4.41 34.43zm26.2 45.08c-17.66,11.76 -28.31,21.57 -31.87,29.52 -3.64,7.95 -6.36,19.29 -8.27,34.17 -2.19,17.09 -2.48,27.99 -0.84,32.99 1.56,4.99 5.73,7.44 12.41,7.44 6.35,0 10.65,-1.94 13.1,-5.84 2.44,-3.89 4.68,-14.04 6.8,-30.62l8.67 -67.66zm-272.76 -172.47l-9.1 43.31c18.62,-31.13 41.86,-47.54 69.76,-49.4l-14.82 115.71c-18.35,0 -32.2,2.45 -41.47,7.44 -9.27,4.99 -15.39,11.84 -18.56,20.73 -3.07,8.79 -6.7,29.18 -10.79,61.15l-16.64 129.92 -99.98 0 42.12 -328.86 99.47 0zm-245.23 170.01l-129.92 0 -9.13 71.3c-1.91,14.89 -2.04,24.53 -0.48,28.84 1.65,4.31 5.52,6.43 11.7,6.43 7.7,0 13.23,-2.88 16.49,-8.54 3.36,-5.75 6.05,-16.83 8.15,-33.24l5.57 -43.48 94.9 0 -3.12 24.36c-2.61,20.38 -5.88,36.03 -9.82,46.95 -4.02,10.91 -11.52,22.58 -22.5,35.02 -10.98,12.43 -24.18,21.74 -39.45,28 -15.25,6.17 -33.76,9.3 -55.58,9.3 -21.14,0 -39.45,-3.05 -54.9,-9.22 -15.38,-6.09 -26.9,-14.46 -34.59,-25.12 -7.68,-10.66 -12.35,-22.42 -14.17,-35.27 -1.83,-12.77 -1.22,-31.38 1.92,-55.91l12.29 -96c3.68,-28.76 10.48,-51.43 20.4,-68.09 9.9,-16.58 24.23,-29.35 43.03,-38.15 18.9,-8.88 39.76,-13.28 62.77,-13.28 28.08,0 50.57,5.33 67.48,15.99 16.9,10.66 27.95,24.78 33.06,42.37 5.11,17.51 5.58,42.29 1.5,74.18l-5.58 43.56zm-93.15 -53.29l3.08 -24.02c2.19,-17.09 2.65,-28 1.43,-32.99 -1.22,-4.99 -4.72,-7.44 -10.47,-7.44 -7.11,0 -11.77,2.11 -14.01,6.35 -2.23,4.23 -4.53,15.56 -6.9,34.09l-3.08 24.02 29.94 0zm-233.05 -189.3l-51.42 401.43 -91.35 0 34.45 -271.01 -70.99 271.01 -63.94 0 -4.39 -264.92 -34.19 264.92 -91.35 0 51.42 -401.43 134.91 0c0.7,24.28 1.18,52.87 1.48,85.51l1.75 101.93 47.77 -187.44 135.84 0zm-573.31 319.73l-10.47 81.71 -75.62 0 10.47 -81.71 75.62 0zm-153.5 -319.73l-51.42 401.43 -103.02 0 51.42 -401.43 103.02 0zm-232 0l-34.36 268.3c-5.15,40.18 -8.87,65.98 -11.19,77.48 -2.32,11.5 -7.45,21.83 -15.32,31.13 -7.95,9.22 -17.91,15.65 -29.78,19.2 -11.88,3.55 -29.36,5.33 -52.37,5.33l-52.02 0 9 -70.29c6.11,0.51 10.56,0.76 13.35,0.76 7.28,0 13.34,-1.78 18.03,-5.41 4.7,-3.64 7.72,-8.12 9,-13.45 1.35,-5.24 3,-15.48 4.95,-30.7l36.16 -282.34 104.54 0zm1613.59 -496.31c-83.89,22.21 -167.9,43.97 -251.79,66.16l-28.94 7.65 7.86 -28.86c22.34,-82.2 45.2,-164.26 67.33,-246.51 -64.71,-114.83 -80.69,-255.48 -45.06,-382.25 29.12,-103.59 92.4,-196.84 177.26,-262.93 96.34,-75.03 220.41,-112.97 342.26,-104.92 102.78,6.78 202.98,45.44 283.25,110.06 86.17,69.39 149.08,167.2 174.98,274.88 28.36,117.9 13.21,245.82 -43.25,353.26 -57,108.53 -154.15,194.92 -268.7,238.69 -133.7,51.11 -288.69,41.54 -415.21,-25.22zm-114.49 -90.85c41.56,-10.89 83.1,-21.81 124.66,-32.68l7.25 -1.9 6.33 3.99c46.08,29.09 97.75,49.33 151.64,57.89 104.04,16.54 214.14,-11.81 297.48,-76.19 89.57,-69.2 146.48,-178.47 151.08,-291.66 4.49,-110.16 -40.26,-221.06 -120.09,-297.15 -73.4,-69.94 -174.77,-109.16 -276.12,-107.09 -108.42,2.21 -214.35,52.44 -285.32,134.34 -71.43,82.41 -105.76,195.58 -91.64,303.77 8,61.29 30.95,120.25 65.47,171.46l4.41 6.53 -2.04 7.6c-10.89,40.4 -22.03,80.75 -33.1,121.09zm409.57 -250.84c15.64,-16.49 29.04,-35.12 43.53,-53.02 11.59,-13.77 28.38,-12.06 43.68,-5.94 28.38,12.07 55.68,26.35 84.43,40.16 11.34,6.34 20.87,8.34 29.41,19.86l2.24 3.02 0.78 3.68c4.13,19.49 -0.12,38.5 -5.02,57.34 -7.93,30.32 -32.98,49.32 -59.03,63.85 -36.55,20.39 -80.8,21.25 -121.01,10.29 -46.96,-14.43 -93.18,-32.39 -134.29,-59.71 -51.78,-34.43 -96.39,-78.81 -134.3,-127.92 -27.97,-36.24 -54.75,-73.91 -67.46,-118.22 -14.85,-48.43 -7.22,-104.59 25.3,-144.3 13,-15.88 25.57,-31.02 47.68,-36.11 14.07,-2.31 27.51,-1.31 41.08,-0.8 17.02,-0.45 28.61,11.62 35.28,26.02 7.66,16.47 13.92,33.51 21.45,51.16 7.15,19.85 17.52,37.8 22.76,58.54l0.81 3.22 -0.43 3.28c-3.22,24.36 -19.03,40.08 -34.64,58.13 -1.39,1.5 -5.91,6.04 -6.94,4.57 32.99,59.48 84.9,109.05 147.44,135.6 2.8,1.07 13.31,6.39 17.27,7.3zm8834.01 -462.03l-60.92 475.64 51.52 0 -15.9 124.2 -51.52 0 -16.38 127.88 -181.24 0 16.38 -127.88 -216.2 0 15.9 -124.2 218.09 -475.64 240.27 0zm-242.16 475.64l39.65 -309.57 -120.31 309.57 80.66 0zm-767.86 58.88l181.24 0c-4.36,34.04 -6.65,55.5 -6.85,64.25 -0.22,8.89 2.5,16.4 8.32,22.38 5.68,5.98 14.18,9.05 25.37,9.05 9.35,0 17.39,-2.91 24.25,-8.59 6.71,-5.67 11.16,-12.88 13.09,-21.93 1.92,-9.05 4.55,-27.14 8.02,-54.28l14.83 -115.77c-11.52,19.32 -26.86,33.73 -46.04,43.39 -19.33,9.66 -42.35,14.57 -69.03,14.57 -33.27,0 -61.55,-9.05 -84.71,-26.99 -23.31,-17.94 -36.64,-39.56 -40.32,-64.7 -3.68,-25.15 -2.85,-59.19 2.65,-102.12l7.42 -57.96c6.54,-51.06 13.39,-88.93 20.71,-113.77 7.19,-24.99 20.56,-47.99 39.97,-69 19.57,-21.16 44.83,-37.57 76.09,-49.37 31.08,-11.65 66.33,-17.48 105.59,-17.48 48.61,0 87.61,6.75 117,20.24 29.4,13.5 51.15,32.81 64.91,58.27 13.94,25.3 20.35,51.83 19.54,79.73 -0.97,27.91 -6.5,81.88 -16.75,161.92l-12.96 101.2c-11.07,86.48 -19.72,144.44 -25.78,173.72 -6.18,29.14 -20.16,56.89 -41.9,82.95 -21.74,26.06 -49.22,45.54 -82.33,58.57 -33.25,13.03 -70.44,19.62 -111.84,19.62 -51.21,0 -92.01,-8.28 -122.42,-24.69 -30.38,-16.56 -50.85,-39.87 -61.29,-69.77 -10.41,-30.05 -12.61,-67.92 -6.78,-113.46zm210.26 -226.62c-3.93,30.67 -2.35,49.52 4.85,56.73 7.05,7.21 14.88,10.73 23.31,10.73 12.73,0 22.67,-4.6 29.66,-13.64 7.16,-9.2 12.37,-27.14 15.79,-53.82l16.87 -131.71c4.11,-32.04 4.04,-53.05 -0.38,-62.87 -4.24,-9.97 -12.97,-14.87 -26,-14.87 -7.82,0 -16.59,3.83 -26.01,11.5 -9.41,7.67 -16.34,28.21 -20.64,61.79l-17.44 136.16zm-465.43 -307.89l-60.92 475.64 51.52 0 -15.9 124.2 -51.52 0 -16.38 127.88 -181.24 0 16.38 -127.88 -216.2 0 15.9 -124.2 218.09 -475.64 240.27 0zm-242.16 475.64l39.65 -309.57 -120.31 309.57 80.66 0zm-271.91 -475.64l-93.21 727.72 -181.24 0 50.04 -390.69c7.23,-56.42 10.2,-90.47 9.05,-101.81 -1.3,-11.35 -7.55,-20.09 -18.91,-25.92 -11.37,-5.83 -37.98,-8.74 -79.84,-8.74l-17.94 0 10.82 -84.49c90.1,-18.71 161.61,-57.5 214.5,-116.07l106.72 0zm-603.3 0l-60.92 475.64 51.52 0 -15.9 124.2 -51.52 0 -16.38 127.88 -181.24 0 16.38 -127.88 -216.2 0 15.9 -124.2 218.09 -475.64 240.27 0zm-242.16 475.64l39.65 -309.57 -120.31 309.57 80.66 0zm-271.91 -475.64l-93.21 727.72 -181.24 0 50.04 -390.69c7.23,-56.42 10.2,-90.47 9.05,-101.81 -1.3,-11.35 -7.55,-20.09 -18.91,-25.92 -11.37,-5.83 -37.98,-8.74 -79.84,-8.74l-17.94 0 10.82 -84.49c90.1,-18.71 161.61,-57.5 214.5,-116.07l106.72 0zm-603.3 0l-60.92 475.64 51.52 0 -15.9 124.2 -51.52 0 -16.38 127.88 -181.24 0 16.38 -127.88 -216.2 0 15.9 -124.2 218.09 -475.64 240.27 0zm-242.16 475.64l39.65 -309.57 -120.31 309.57 80.66 0zm-330.96 127.88l-15.91 124.2 -399.28 0 13.62 -103.96c143.14,-193.35 228.84,-312.95 257.11,-358.95 28.28,-46 44.07,-81.88 47.35,-107.49 2.53,-19.78 0.89,-34.5 -4.6,-44.31 -5.51,-9.66 -15.16,-14.57 -28.95,-14.57 -13.8,0 -24.91,5.37 -33.04,16.1 -8.12,10.73 -14.22,32.04 -18.31,63.94l-8.84 69 -162.84 0 3.4 -26.53c5.2,-40.63 11.48,-72.83 18.62,-96.29 7.15,-23.46 20.54,-46.61 39.85,-69.31 19.46,-22.69 43.15,-40.02 71.02,-51.67 27.86,-11.65 60.2,-17.48 97,-17.48 72.22,0 124.51,17.94 157.04,53.67 32.36,35.88 45.12,81.11 38.11,135.85 -5.34,41.71 -21.41,85.71 -48.21,132.17 -26.81,46.46 -100.9,144.9 -222.17,295.62l199.02 0zm-736.07 -287.5c26.25,9.35 44.7,24.53 55.5,45.54 10.63,21.16 11.03,70.69 1.06,148.58 -7.4,57.81 -19.75,102.73 -37.02,134.62 -17.27,31.9 -43.07,56.12 -77.54,72.68 -34.49,16.72 -76.95,24.99 -127.55,24.99 -57.35,0 -101.34,-9.66 -131.53,-28.98 -30.34,-19.32 -48.91,-43.09 -55.59,-71.15 -6.7,-27.91 -5.67,-76.66 3.21,-145.97l7.37 -57.5 181.24 0 -15.16 118.37c-4.04,31.59 -4.78,51.67 -2.02,60.11 2.58,8.59 10.46,12.88 23.34,12.88 14.11,0 24.14,-5.37 29.99,-16.25 5.82,-10.74 11.74,-38.95 17.57,-84.49l6.46 -50.45c3.57,-27.91 3.12,-48.3 -1.52,-61.18 -4.64,-12.88 -12.91,-21.31 -24.67,-25.3 -11.74,-4.14 -35.21,-6.44 -70.39,-7.05l13.55 -105.8c43.08,0 69.83,-1.68 80.51,-4.91 10.55,-3.37 18.82,-10.43 24.7,-21.62 5.86,-11.04 10.38,-28.37 13.4,-51.98l5.16 -40.33c3.26,-25.45 2.8,-42.17 -1.38,-50.29 -4.33,-8.13 -11.94,-12.11 -22.98,-12.11 -12.72,0 -21.86,4.29 -27.54,12.73 -5.85,8.59 -10.47,26.68 -14.05,54.59l-7.64 59.65 -181.24 0 7.93 -61.95c8.9,-69.46 30.83,-116.22 65.7,-140.6 34.86,-24.38 86.88,-36.65 156.03,-36.65 86.48,0 143.04,16.86 169.53,50.75 26.48,33.89 35.94,80.96 28.24,141.07 -5.22,40.78 -14.51,70.22 -27.87,88.32 -13.51,18.09 -35.1,34.65 -64.78,49.68zm-521.14 287.5l-15.91 124.2 -399.28 0 13.62 -103.96c143.14,-193.35 228.84,-312.95 257.11,-358.95 28.28,-46 44.07,-81.88 47.35,-107.49 2.53,-19.78 0.89,-34.5 -4.6,-44.31 -5.51,-9.66 -15.16,-14.57 -28.95,-14.57 -13.8,0 -24.91,5.37 -33.04,16.1 -8.12,10.73 -14.22,32.04 -18.31,63.94l-8.84 69 -162.84 0 3.4 -26.53c5.2,-40.63 11.48,-72.83 18.62,-96.29 7.15,-23.46 20.54,-46.61 39.85,-69.31 19.46,-22.69 43.15,-40.02 71.02,-51.67 27.86,-11.65 60.2,-17.48 97,-17.48 72.22,0 124.51,17.94 157.04,53.67 32.36,35.88 45.12,81.11 38.11,135.85 -5.34,41.71 -21.41,85.71 -48.21,132.17 -26.81,46.46 -100.9,144.9 -222.17,295.62l199.02 0zm-572.04 -288.42c25.31,10.74 43.79,26.83 55.3,48.3 11.66,21.47 12.35,72.37 2.02,153.03 -7.52,58.72 -18.73,101.96 -33.65,129.87 -15.05,27.75 -40.06,50.6 -75.32,68.54 -35.24,17.79 -80.55,26.68 -136.05,26.68 -53.97,0 -95.5,-8.59 -124.75,-25.6 -29.4,-17.02 -49.04,-39.71 -59.07,-67.93 -10.05,-28.06 -10.79,-74.98 -2.39,-140.6 5.63,-44.01 13.9,-82.19 24.79,-114.54 10.89,-32.36 35.37,-58.27 73.44,-77.74 -21.01,-10.73 -35.52,-27.9 -43.69,-51.52 -8.19,-23.46 -10.03,-53.36 -5.4,-89.54 8.01,-62.56 31.37,-109.63 70.18,-140.91 38.66,-31.28 92.64,-46.92 161.79,-46.92 80.04,0 133.12,16.56 159.37,49.83 26.25,33.27 35.5,80.8 27.6,142.44 -5.03,39.26 -13.72,67.62 -25.91,84.95 -12.18,17.33 -34.95,34.65 -68.26,51.67zm-81.84 -155.94c3.16,-24.69 3.1,-40.94 -0.35,-48.76 -3.28,-7.97 -11.2,-11.96 -23.62,-11.96 -12.11,0 -20.79,4.29 -26.18,12.88 -5.22,8.43 -9.41,24.38 -12.41,47.84l-7.07 55.2c-2.81,21.92 -2.28,36.95 1.39,45.39 3.83,8.43 11.42,12.57 22.92,12.57 12.11,0 20.77,-4.14 26.12,-12.42 5.18,-8.13 9.5,-25.15 12.81,-50.91l6.38 -49.83zm-34.99 301.91c3.57,-27.91 3.02,-46.31 -1.48,-55.51 -4.66,-9.05 -13.12,-13.64 -25.55,-13.64 -12.11,0 -21.42,4.44 -27.75,13.19 -6.5,8.89 -11.49,27.45 -15.14,55.96l-12.06 94.15c-4.02,31.43 -3.7,51.67 1.14,60.57 4.67,9.05 13.45,13.5 26.18,13.5 13.03,0 22.36,-4.6 28.12,-13.65 5.62,-9.2 10.55,-29.75 14.66,-61.79l11.88 -92.76zm-572.33 142.45l-15.91 124.2 -399.28 0 13.62 -103.96c143.14,-193.35 228.84,-312.95 257.11,-358.95 28.28,-46 44.07,-81.88 47.35,-107.49 2.53,-19.78 0.89,-34.5 -4.6,-44.31 -5.51,-9.66 -15.16,-14.57 -28.95,-14.57 -13.8,0 -24.91,5.37 -33.04,16.1 -8.12,10.73 -14.22,32.04 -18.31,63.94l-8.84 69 -162.84 0 3.4 -26.53c5.2,-40.63 11.48,-72.83 18.62,-96.29 7.15,-23.46 20.54,-46.61 39.85,-69.31 19.46,-22.69 43.15,-40.02 71.02,-51.67 27.86,-11.65 60.2,-17.48 97,-17.48 72.22,0 124.51,17.94 157.04,53.67 32.36,35.88 45.12,81.11 38.11,135.85 -5.34,41.71 -21.41,85.71 -48.21,132.17 -26.81,46.46 -100.9,144.9 -222.17,295.62l199.02 0zm-464.24 -409.4l-181.24 0c4.36,-34.04 6.8,-55.5 7.16,-64.24 0.37,-8.9 -2.35,-16.41 -8.18,-22.39 -5.68,-5.98 -14.18,-9.05 -25.37,-9.05 -9.35,0 -17.39,2.91 -24.25,8.59 -6.71,5.67 -11.16,12.88 -13.24,21.93 -2.08,9.05 -4.85,27.14 -8.33,54.28l-14.83 115.77c11.83,-19.32 27.34,-33.89 46.52,-43.55 19.33,-9.66 42.17,-14.41 68.55,-14.41 33.27,0 61.55,9.05 84.71,26.99 23.31,17.94 36.66,39.41 40.34,64.55 3.68,25.14 2.84,59.18 -2.64,101.96l-7.4 57.81c-6.52,50.91 -13.37,88.78 -20.38,113.62 -7.16,24.84 -20.38,47.84 -40.1,68.85 -19.58,21.16 -44.98,37.57 -75.92,49.22 -31.09,11.65 -66.18,17.48 -105.43,17.48 -48.91,0 -88.07,-6.74 -117.47,-20.24 -29.4,-13.49 -51,-32.81 -64.78,-58.11 -13.62,-25.3 -20.19,-51.83 -19.38,-79.73 0.64,-27.75 6.19,-81.88 16.46,-162.07l12.88 -100.59c11.07,-86.48 19.73,-144.44 26.06,-173.57 6.34,-29.14 20.17,-56.89 41.89,-82.8 21.58,-26.06 49.09,-45.69 82.34,-58.72 33.26,-13.03 70.58,-19.47 111.98,-19.47 50.91,0 91.71,8.28 122.26,24.69 30.54,16.56 50.86,39.87 61.14,69.77 10.26,30.05 12.46,67.92 6.63,113.46zm-210.22 226.32c3.28,-25.61 2.63,-43.24 -1.83,-52.75 -4.59,-9.66 -13.33,-14.41 -26.37,-14.41 -12.72,0 -22.66,4.6 -29.65,13.64 -7.16,9.2 -12.35,26.99 -15.75,53.52l-16.81 131.25c-4.11,32.05 -4.01,52.9 0.39,62.87 4.26,9.81 12.99,14.72 26.02,14.72 7.82,0 16.59,-3.83 26.01,-11.5 9.4,-7.51 16.32,-28.06 20.6,-61.48l17.4 -135.85zm-806.59 -110.4l161 0 20.74 -161.92 109.48 0 -20.74 161.92 161.92 0 -14.02 109.48 -161.92 0 -20.62 161 -109.48 0 20.62 -161 -161 0 14.02 -109.48zm-2752.08 -1103.85l55.44 0c4.79,0 8.69,3.91 8.69,8.69l0 58.45c0,4.79 -3.9,8.69 -8.69,8.69l-204.3 0c-4.79,0 -8.69,-3.91 -8.69,-8.69l0 -58.45c0,-4.79 3.9,-8.69 8.69,-8.69l54.35 0 0 -191.92 -149.88 -258.29 -56.55 0c-4.79,0 -8.69,-3.91 -8.69,-8.69l0 -58.45c0,-4.79 3.9,-8.69 8.69,-8.69l205.65 0c4.79,0 8.69,3.91 8.69,8.69l0 58.45c0,4.79 -3.9,8.69 -8.69,8.69l-43.98 0 94.34 167.61 98.32 -167.61 -42.6 0c-4.79,0 -8.69,-3.91 -8.69,-8.69l0 -58.45c0,-4.79 3.9,-8.69 8.69,-8.69l196.45 0c4.79,0 8.69,3.91 8.69,8.69l0 58.45c0,4.79 -3.9,8.69 -8.69,8.69l-57.63 0 -149.61 258.28 0 191.92zm341.36 -119.57c0,-56.93 19.82,-105.78 60.99,-145.23 42.04,-40.28 93.47,-58.29 151.46,-58.29 58.05,0 109.71,17.89 151.74,58.3 41.07,39.49 60.72,88.35 60.72,145.22 0,56.96 -19.71,105.92 -60.69,145.61 -41.97,40.64 -93.6,58.73 -151.76,58.73 -58.11,0 -109.51,-18.22 -151.48,-58.72 -41.09,-39.65 -60.97,-88.59 -60.97,-145.62zm672.63 -120.38l-48.13 0c-4.79,0 -8.69,-3.9 -8.69,-8.69l0 -56.02c0,-4.79 3.9,-8.69 8.69,-8.69l126.64 0c4.79,0 8.69,3.91 8.69,8.69l0 223.11c0,17.9 1.01,56.69 13.04,71.33 10.3,12.53 28.81,15.1 44.02,15.1 19.13,0 37.01,-5.31 53.78,-14.38 20.15,-10.9 38.59,-27.23 54.43,-43.85l0 -186.6 -48.95 0c-4.79,0 -8.69,-3.9 -8.69,-8.69l0 -56.02c0,-4.79 3.9,-8.69 8.69,-8.69l127.45 0c4.79,0 8.69,3.91 8.69,8.69l0 306.29 48.13 0c4.79,0 8.69,3.9 8.69,8.69l0 56.83c0,4.79 -3.91,8.69 -8.69,8.69l-126.64 0c-4.79,0 -8.69,-3.91 -8.69,-8.69l0 -33.63c-16.27,14.19 -34.18,26.75 -53.66,35.83 -23.17,10.8 -47.65,16.23 -73.22,16.23 -34.94,0 -71.24,-7.69 -95.28,-35.01 -24.9,-28.3 -30.31,-71.4 -30.31,-107.63l0 -182.89zm872.61 239.95l0 -450.21 -54.63 0c-4.79,0 -8.7,-3.91 -8.7,-8.69l0 -58.45c0,-4.79 3.91,-8.69 8.7,-8.69l214.31 0c4.79,0 8.7,3.91 8.7,8.69l0 58.45c0,4.79 -3.91,8.69 -8.7,8.69l-65.18 0 0 450.21 178.26 0 0 -105.77c0,-4.79 3.9,-8.69 8.69,-8.69l69 0c4.79,0 8.69,3.9 8.69,8.69l0 172.91c0,4.79 -3.91,8.69 -8.69,8.69l-405.09 0c-4.79,0 -8.7,-3.91 -8.7,-8.69l0 -58.45c0,-4.79 3.91,-8.69 8.7,-8.69l54.63 0zm645.57 -89.77c3.92,27.34 15.7,50.64 37.14,69.31 24.75,21.57 54.83,30.2 87.38,30.2 21.65,0 42.02,-4.74 61.12,-14.94 19.04,-10.17 34.08,-24.64 45.76,-42.77 1.65,-2.56 4.27,-3.99 7.31,-3.99l64.81 0c3.05,0 5.67,1.44 7.32,4 1.65,2.57 1.85,5.55 0.58,8.32 -17.54,38.13 -43.72,69.2 -79.12,91.78 -35.8,22.83 -75.34,33.43 -117.78,33.43 -56.71,0 -108.19,-16.53 -148.51,-57.23 -40.77,-41.16 -56.63,-93.83 -56.63,-151.03 0,-55.63 16.16,-106.2 56.48,-145.45 40.89,-39.81 93.2,-54.96 149.48,-54.96 57.57,0 109.08,17.43 149.29,59.37 41.14,42.91 56.67,97.89 56.67,156.47l0 8.79c0,4.79 -3.9,8.69 -8.69,8.69l-312.58 0zm934.66 92.21l48.13 0c4.79,0 8.7,3.91 8.7,8.69l0 56.02c0,4.79 -3.91,8.69 -8.7,8.69l-126.64 0c-4.79,0 -8.7,-3.91 -8.7,-8.69l0 -27c-12.69,12.09 -27.28,21.84 -43.65,29.12 -24.88,11.07 -51.78,15.5 -78.9,15.5 -55.44,0 -103.44,-18.96 -142.32,-58.62 -39.24,-40.04 -57.41,-88.99 -57.41,-144.9 0,-56.02 18.3,-105.12 57.53,-145.3 38.85,-39.78 86.67,-59.04 142.2,-59.04 26.54,0 52.83,4.49 77.16,15.37 16.91,7.56 32.01,17.78 45.39,30.17l0 -27.1c0,-4.79 3.91,-8.69 8.7,-8.69l126.64 0c4.79,0 8.7,3.91 8.7,8.69l0 56.02c0,4.79 -3.91,8.69 -8.7,8.69l-48.13 0 0 242.39zm282.17 -242.39l-36.16 0c-4.79,0 -8.69,-3.9 -8.69,-8.69l0 -56.02c0,-4.79 3.9,-8.69 8.69,-8.69l167.37 0c4.79,0 8.69,3.91 8.69,8.69l0 56.02c0,4.79 -3.91,8.69 -8.69,8.69l-42 0 76.97 194.45 78.01 -194.45 -43.16 0c-4.79,0 -8.69,-3.9 -8.69,-8.69l0 -56.02c0,-4.79 3.9,-8.69 8.69,-8.69l162.22 0c4.79,0 8.69,3.91 8.69,8.69l0 56.02c0,4.79 -3.91,8.69 -8.69,8.69l-36.84 0 -126.37 320.03c-1.33,3.39 -4.44,5.5 -8.08,5.5l-57.64 0c-3.64,0 -6.75,-2.12 -8.09,-5.5l-126.23 -320.03zm638.06 150.18c3.92,27.34 15.7,50.64 37.14,69.31 24.75,21.57 54.83,30.2 87.38,30.2 21.66,0 42.02,-4.74 61.12,-14.94 19.04,-10.17 34.08,-24.64 45.76,-42.77 1.65,-2.56 4.27,-3.99 7.31,-3.99l64.81 0c3.05,0 5.67,1.44 7.32,4 1.65,2.57 1.85,5.55 0.58,8.32 -17.54,38.13 -43.72,69.2 -79.13,91.78 -35.8,22.83 -75.33,33.43 -117.78,33.43 -56.71,0 -108.19,-16.53 -148.51,-57.23 -40.77,-41.16 -56.63,-93.83 -56.63,-151.03 0,-55.63 16.16,-106.2 56.48,-145.45 40.89,-39.81 93.21,-54.96 149.48,-54.96 57.57,0 109.08,17.43 149.29,59.37 41.14,42.91 56.67,97.89 56.67,156.47l0 8.79c0,4.79 -3.91,8.69 -8.69,8.69l-312.59 0zm769.66 -307.43l0 -74.69c0,-4.79 3.91,-8.69 8.69,-8.69l99.85 0c4.79,0 8.69,3.9 8.69,8.69l0 74.69c0,4.79 -3.9,8.69 -8.69,8.69l-99.85 0c-4.79,0 -8.69,-3.91 -8.69,-8.69zm117.24 399.63l56.25 0c4.79,0 8.69,3.91 8.69,8.69l0 56.02c0,4.79 -3.91,8.69 -8.69,8.69l-198.08 0c-4.79,0 -8.69,-3.91 -8.69,-8.69l0 -56.02c0,-4.79 3.91,-8.69 8.69,-8.69l55.44 0 0 -242.39 -55.44 0c-4.79,0 -8.69,-3.9 -8.69,-8.69l0 -56.02c0,-4.79 3.91,-8.69 8.69,-8.69l133.14 0c4.79,0 8.69,3.91 8.69,8.69l0 307.09zm297.12 -242.39l-58.68 0c-4.79,0 -8.69,-3.9 -8.69,-8.69l0 -56.02c0,-4.79 3.91,-8.69 8.69,-8.69l58.68 0 0 -130.12c0,-4.79 3.91,-8.69 8.69,-8.69l65.75 0c4.79,0 8.7,3.9 8.7,8.69l0 130.12 64.37 0c4.79,0 8.69,3.91 8.69,8.69l0 56.02c0,4.79 -3.91,8.69 -8.69,8.69l-64.37 0 0 187.77c0,8.18 0.39,41.99 5.72,48.44 4.64,5.62 22.4,6.18 28.88,6.18 6.55,0 17.84,-2.34 24.47,-3.41 0.17,-0.03 0.31,-0.04 0.48,-0.06l3.92 -0.4c2.54,-0.27 4.82,0.48 6.72,2.19 1.89,1.71 2.87,3.91 2.87,6.46l0 59.26c0,4.33 -3.11,7.94 -7.38,8.59 -8.81,1.35 -17.63,2.41 -26.53,3.05 -10.98,0.8 -22.09,0.97 -33.1,0.97 -21.99,0 -51.65,-2.51 -68.85,-17.91 -16.87,-15.11 -20.35,-40.97 -20.35,-62.35l0 -238.77zm454.03 325.53c-17.01,0 -32.11,-5.54 -44.26,-17.52 -12.17,-12.01 -17.88,-27.16 -17.88,-44.21 0,-17.07 5.89,-31.95 17.98,-44.03 12.09,-12.09 27.1,-17.97 44.16,-17.97 17.16,0 32.14,5.94 44.3,18.1 12.05,12.06 18.1,26.86 18.1,43.9 0,17.08 -5.98,31.79 -18.14,43.8 -12.19,12.02 -27.17,17.92 -44.26,17.92zm537.62 -535.78l-43.98 0c-4.79,0 -8.69,-3.91 -8.69,-8.69l0 -58.45c0,-4.79 3.9,-8.69 8.69,-8.69l188.47 0c4.79,0 8.69,3.91 8.69,8.69l0 58.45c0,4.79 -3.9,8.69 -8.69,8.69l-50.99 0 103.68 349.02 105.15 -349.02 -54.87 0c-4.79,0 -8.69,-3.91 -8.69,-8.69l0 -58.45c0,-4.79 3.9,-8.69 8.69,-8.69l196.59 0c4.79,0 8.69,3.91 8.69,8.69l0 58.45c0,4.79 -3.91,8.69 -8.69,8.69l-55.66 0 105.89 349.08 103.46 -349.08 -50.59 0c-4.79,0 -8.69,-3.91 -8.69,-8.69l0 -58.45c0,-4.79 3.9,-8.69 8.69,-8.69l180.08 0c4.79,0 8.69,3.91 8.69,8.69l0 58.45c0,4.79 -3.9,8.69 -8.69,8.69l-43.85 0 -157.27 529.56c-1.11,3.75 -4.42,6.22 -8.33,6.22l-50.33 0c-3.9,0 -7.21,-2.46 -8.33,-6.2l-117.22 -391.82 -116.97 391.82c-1.11,3.74 -4.42,6.21 -8.33,6.21l-51.15 0c-3.91,0 -7.22,-2.47 -8.33,-6.22l-157.13 -529.56zm949.27 360.43c3.92,27.34 15.7,50.64 37.14,69.31 24.75,21.57 54.83,30.2 87.38,30.2 21.66,0 42.02,-4.74 61.12,-14.94 19.04,-10.17 34.08,-24.64 45.76,-42.77 1.65,-2.56 4.27,-3.99 7.31,-3.99l64.81 0c3.05,0 5.67,1.44 7.32,4 1.65,2.57 1.85,5.55 0.58,8.32 -17.54,38.13 -43.72,69.2 -79.13,91.78 -35.8,22.83 -75.33,33.43 -117.78,33.43 -56.71,0 -108.2,-16.53 -148.52,-57.23 -40.77,-41.16 -56.63,-93.83 -56.63,-151.03 0,-55.63 16.16,-106.2 56.48,-145.45 40.89,-39.81 93.21,-54.96 149.48,-54.96 57.57,0 109.08,17.43 149.29,59.37 41.14,42.91 56.67,97.89 56.67,156.47l0 8.79c0,4.79 -3.91,8.69 -8.69,8.69l-312.59 0zm1208.84 -393.75l0 -33.83c0,-4.79 3.9,-8.69 8.69,-8.69l63.32 0c4.79,0 8.69,3.91 8.69,8.69l0 181.03c0,4.79 -3.91,8.69 -8.69,8.69l-60.21 0c-3.85,0 -7.13,-2.4 -8.29,-6.07 -11.08,-35.07 -29.54,-67.1 -59.94,-88.76 -30.99,-22.08 -68.73,-29.37 -106.17,-29.37 -58.89,0 -111.08,17.64 -151.36,61.46 -42.03,45.71 -56.7,104.32 -56.7,165.27 0,61.7 16.31,118.6 59.07,164.12 41.17,43.82 93.17,62.61 152.91,62.61 37.36,0 73.77,-8.02 104.53,-30.04 31.58,-22.6 52.21,-56.19 66.1,-91.87 1.33,-3.41 4.44,-5.54 8.1,-5.54l72.25 0c2.76,0 5.13,1.15 6.83,3.32 1.7,2.17 2.26,4.75 1.61,7.42 -14.48,59.62 -43.53,111.24 -92.44,148.93 -49.48,38.12 -108.05,53.36 -169.96,53.36 -85.17,0 -159.92,-27.15 -219.73,-88.4 -60.24,-61.7 -86.22,-138.19 -86.22,-223.9 0,-85.36 26.19,-161.12 85.49,-223.03 58.31,-60.88 130.84,-89.27 214.9,-89.27 35.51,0 70.85,5.06 104.23,17.46 23.12,8.59 44.51,20.49 62.97,36.43zm372.27 31.69l-55.44 0c-4.79,0 -8.69,-3.91 -8.69,-8.69l0 -56.83c0,-4.79 3.9,-8.69 8.69,-8.69l133.95 0c4.79,0 8.69,3.91 8.69,8.69l0 519.78 55.44 0c4.79,0 8.69,3.91 8.69,8.69l0 56.02c0,4.79 -3.9,8.69 -8.69,8.69l-198.08 0c-4.79,0 -8.69,-3.91 -8.69,-8.69l0 -56.02c0,-4.79 3.9,-8.69 8.69,-8.69l55.44 0 0 -454.26zm433.56 362.06c3.92,27.34 15.7,50.64 37.14,69.31 24.75,21.57 54.83,30.2 87.38,30.2 21.65,0 42.02,-4.74 61.12,-14.94 19.04,-10.17 34.08,-24.64 45.76,-42.77 1.65,-2.56 4.27,-3.99 7.31,-3.99l64.81 0c3.05,0 5.67,1.44 7.32,4 1.65,2.57 1.85,5.55 0.58,8.32 -17.54,38.13 -43.72,69.2 -79.12,91.78 -35.8,22.83 -75.34,33.43 -117.78,33.43 -56.71,0 -108.19,-16.53 -148.51,-57.23 -40.77,-41.16 -56.63,-93.83 -56.63,-151.03 0,-55.63 16.16,-106.2 56.48,-145.45 40.89,-39.81 93.2,-54.96 149.48,-54.96 57.57,0 109.08,17.43 149.29,59.37 41.14,42.91 56.67,97.89 56.67,156.47l0 8.79c0,4.79 -3.9,8.69 -8.69,8.69l-312.58 0zm934.66 92.21l48.13 0c4.79,0 8.7,3.91 8.7,8.69l0 56.02c0,4.79 -3.91,8.69 -8.7,8.69l-126.64 0c-4.79,0 -8.69,-3.91 -8.69,-8.69l0 -27c-12.7,12.09 -27.28,21.84 -43.65,29.12 -24.88,11.07 -51.78,15.5 -78.9,15.5 -55.44,0 -103.44,-18.96 -142.32,-58.62 -39.24,-40.04 -57.41,-88.99 -57.41,-144.9 0,-56.02 18.3,-105.12 57.53,-145.3 38.85,-39.78 86.67,-59.04 142.2,-59.04 26.54,0 52.83,4.49 77.16,15.37 16.91,7.56 32.01,17.78 45.39,30.17l0 -27.1c0,-4.79 3.9,-8.69 8.69,-8.69l126.64 0c4.79,0 8.7,3.91 8.7,8.69l0 56.02c0,4.79 -3.91,8.69 -8.7,8.69l-48.13 0 0 242.39zm664.65 0l48.14 0c4.79,0 8.69,3.91 8.69,8.69l0 56.02c0,4.79 -3.9,8.69 -8.69,8.69l-183.47 0c-4.79,0 -8.7,-3.91 -8.7,-8.69l0 -56.02c0,-4.79 3.91,-8.69 8.7,-8.69l48.13 0 0 -158.4c0,-18.11 -1.07,-56.92 -13.09,-71.78 -10.3,-12.74 -28.59,-15.45 -43.98,-15.45 -18.99,0 -36.75,5.54 -53.33,14.62 -20.28,11.12 -38.88,27.64 -54.88,44.41l0 186.6 48.95 0c4.79,0 8.69,3.91 8.69,8.69l0 56.02c0,4.79 -3.9,8.69 -8.69,8.69l-184.28 0c-4.79,0 -8.69,-3.91 -8.69,-8.69l0 -56.02c0,-4.79 3.91,-8.69 8.69,-8.69l48.95 0 0 -242.39 -48.95 0c-4.79,0 -8.69,-3.9 -8.69,-8.69l0 -56.02c0,-4.79 3.91,-8.69 8.69,-8.69l126.64 0c4.79,0 8.69,3.91 8.69,8.69l0 32.86c16.15,-14.01 33.92,-26.3 53.3,-35.21 23.32,-10.73 47.91,-16.08 73.58,-16.08 20.89,0 41.63,3.42 60.78,11.99 17.82,7.98 32.69,19.87 44.4,35.45 7.22,9.6 12.58,20.28 15.77,31.87 4.09,14.85 4.64,33.23 4.64,48.58l0 197.63zm492.22 -399.63l0 -74.69c0,-4.79 3.9,-8.69 8.69,-8.69l99.85 0c4.79,0 8.69,3.9 8.69,8.69l0 74.69c0,4.79 -3.9,8.69 -8.69,8.69l-99.85 0c-4.79,0 -8.69,-3.91 -8.69,-8.69zm117.24 399.63l56.25 0c4.79,0 8.69,3.91 8.69,8.69l0 56.02c0,4.79 -3.9,8.69 -8.69,8.69l-198.08 0c-4.79,0 -8.69,-3.91 -8.69,-8.69l0 -56.02c0,-4.79 3.9,-8.69 8.69,-8.69l55.44 0 0 -242.39 -55.44 0c-4.79,0 -8.69,-3.9 -8.69,-8.69l0 -56.02c0,-4.79 3.9,-8.69 8.69,-8.69l133.14 0c4.79,0 8.69,3.91 8.69,8.69l0 307.09zm297.12 -242.39l-58.68 0c-4.79,0 -8.7,-3.9 -8.7,-8.69l0 -56.02c0,-4.79 3.91,-8.69 8.7,-8.69l58.68 0 0 -130.12c0,-4.79 3.91,-8.69 8.7,-8.69l65.75 0c4.79,0 8.69,3.9 8.69,8.69l0 130.12 64.37 0c4.79,0 8.69,3.91 8.69,8.69l0 56.02c0,4.79 -3.9,8.69 -8.69,8.69l-64.37 0 0 187.77c0,8.18 0.39,41.99 5.72,48.44 4.64,5.62 22.4,6.18 28.88,6.18 6.55,0 17.84,-2.34 24.47,-3.41 0.17,-0.03 0.32,-0.04 0.49,-0.06l3.92 -0.4c2.54,-0.27 4.82,0.48 6.71,2.19 1.89,1.71 2.87,3.91 2.87,6.46l0 59.26c0,4.33 -3.1,7.94 -7.38,8.59 -8.8,1.35 -17.63,2.41 -26.53,3.05 -10.98,0.8 -22.08,0.97 -33.1,0.97 -21.99,0 -51.65,-2.51 -68.85,-17.91 -16.87,-15.11 -20.35,-40.97 -20.35,-62.35l0 -238.77zm454.03 325.53c-17.01,0 -32.11,-5.54 -44.26,-17.52 -12.18,-12.01 -17.88,-27.16 -17.88,-44.21 0,-17.07 5.89,-31.95 17.97,-44.03 12.09,-12.09 27.1,-17.97 44.16,-17.97 17.16,0 32.15,5.94 44.3,18.1 12.05,12.06 18.1,26.86 18.1,43.9 0,17.08 -5.98,31.79 -18.14,43.8 -12.19,12.02 -27.16,17.92 -44.26,17.92zm-12055.58 -205.15c0,35.34 10.68,66.49 35.31,92.06 23.88,24.78 53.02,36.45 87.37,36.45 34.43,0 63.88,-11.29 87.93,-36.06 24.81,-25.54 35.02,-57.12 35.02,-92.45 0,-35.33 -10.22,-66.9 -35.02,-92.44 -24.06,-24.77 -53.51,-36.06 -87.93,-36.06 -34.35,0 -63.49,11.66 -87.37,36.44 -24.63,25.56 -35.31,56.72 -35.31,92.06zm2101.92 -41.97l229.16 0c-5.18,-24.09 -15.66,-46.32 -35.06,-62.58 -22.34,-18.73 -50.98,-24.76 -79.52,-24.76 -28.54,0 -57.17,6.03 -79.52,24.76 -19.4,16.26 -29.88,38.48 -35.06,62.58zm614.88 42.79c0,35.1 9.95,66.64 34.17,92.41 22.9,24.36 51.07,36.09 84.45,36.09 33.38,0 61.62,-11.59 84.43,-36.06 24.05,-25.81 33.93,-57.42 33.93,-92.43 0,-34.87 -9.79,-66.4 -33.9,-92 -22.88,-24.29 -51.17,-35.69 -84.46,-35.69 -33.46,0 -62.22,10.87 -85.24,35.53 -23.94,25.64 -33.38,57.42 -33.38,92.16zm1240.01 -42.79l229.16 0c-5.18,-24.09 -15.66,-46.32 -35.06,-62.58 -22.34,-18.73 -50.99,-24.76 -79.52,-24.76 -28.53,0 -57.17,6.03 -79.52,24.76 -19.4,16.26 -29.88,38.48 -35.06,62.58zm3124.93 0l229.16 0c-5.18,-24.09 -15.66,-46.32 -35.06,-62.58 -22.34,-18.73 -50.99,-24.76 -79.52,-24.76 -28.53,0 -57.17,6.03 -79.52,24.76 -19.4,16.26 -29.88,38.48 -35.06,62.58zm2014.67 0l229.16 0c-5.18,-24.09 -15.66,-46.32 -35.06,-62.58 -22.34,-18.73 -50.98,-24.76 -79.52,-24.76 -28.54,0 -57.17,6.03 -79.52,24.76 -19.4,16.26 -29.88,38.48 -35.06,62.58zm614.88 42.79c0,35.1 9.95,66.64 34.17,92.41 22.9,24.36 51.07,36.09 84.45,36.09 33.38,0 61.62,-11.59 84.43,-36.06 24.05,-25.81 33.93,-57.42 33.93,-92.43 0,-34.87 -9.79,-66.4 -33.9,-92 -22.88,-24.29 -51.17,-35.69 -84.46,-35.69 -33.46,0 -62.22,10.87 -85.24,35.53 -23.94,25.64 -33.38,57.42 -33.38,92.16zm-7632.43 -841.66l0 -713.93c0,-51.64 -42,-93.71 -93.69,-93.71 -46.92,0 -85.89,34.7 -92.61,79.8 -78.86,-58.75 -175.14,-91.34 -275.89,-91.34 -255.24,0 -462.21,206.98 -462.21,462.2 0,255.27 206.97,462.21 462.21,462.21 100.76,0 197.04,-32.59 275.89,-91.31 6.72,45.08 45.69,79.78 92.61,79.78 51.68,0 93.69,-42.03 93.69,-93.7zm3444.5 -631.81c151.06,0 274.84,122.04 274.84,273.47l0 2.74c0,151.44 -123.78,273.48 -274.84,273.48 -151.82,0 -274.84,-123.03 -274.84,-274.85 0,-151.8 123.02,-274.84 274.84,-274.84zm5442.52 344.87l218.09 -467.73c21.81,-46.77 77.77,-67.15 124.55,-45.35 46.73,21.8 67.1,77.79 45.32,124.55l-488.51 1047.6c-21.8,46.73 -77.83,67.12 -124.57,45.32 -46.7,-21.79 -67.05,-77.83 -45.3,-124.52l167.02 -358.16 -286.05 -613.37c-21.75,-46.72 -1.37,-102.71 45.35,-124.47 46.73,-21.78 102.72,-1.45 124.51,45.3l219.59 470.84zm-7081.6 -756.44c51.73,0 93.67,41.93 93.67,93.66 0,51.73 -41.93,93.66 -93.67,93.66 -51.73,0 -93.66,-41.93 -93.66,-93.66 0,-51.73 41.93,-93.66 93.66,-93.66zm-1365.45 280.68c50.77,-28.84 108.42,-44.41 167.96,-44.41 94.97,0 184.15,39.66 247.93,107.1 63.8,-67.44 152.96,-107.1 247.93,-107.1 187.98,0 341.61,153.63 341.61,341.59l0 465.07c0,51.62 -42.08,93.63 -93.68,93.63 -51.61,0 -93.65,-42.01 -93.65,-93.63l0 -465.07c0,-84.57 -69.71,-154.28 -154.28,-154.28 -84.56,0 -154.25,69.71 -154.25,154.28l0 465.07c0,51.62 -42.07,93.63 -93.68,93.63 -51.59,0 -93.66,-42.01 -93.66,-93.63l0 -465.07c0,-84.57 -69.72,-154.28 -154.27,-154.28 -84.57,0 -154.24,69.73 -154.24,154.28l0 465.52c0,51.67 -42.03,93.7 -93.67,93.7 -51.64,0 -93.69,-42.03 -93.69,-93.7l0 -713.93c0,-51.64 42.05,-93.71 93.69,-93.71 33.81,0 63.48,18.01 79.96,44.93zm-2317.81 34.45c72.57,-51.07 159.64,-79.4 250.43,-79.4 240.3,0 436.68,196.39 436.68,436.67l0 371.03c0,51.62 -42.06,93.65 -93.66,93.65 -51.61,0 -93.67,-42.03 -93.67,-93.65l0 -371.03c0,-136.85 -112.46,-249.32 -249.35,-249.32 -136.84,0 -249.35,112.46 -249.35,249.32l0 370.98c0,51.64 -42,93.71 -93.65,93.71 -51.65,0 -93.66,-42.07 -93.66,-93.71l0 -713.95c0,-51.64 42.01,-93.7 93.66,-93.7 46.79,0 85.69,34.5 92.58,79.4zm3683.25 -79.39c51.65,0 93.65,42.07 93.65,93.71l0 713.93c0,51.67 -42.01,93.7 -93.65,93.7 -51.67,0 -93.68,-42.03 -93.68,-93.7l0 -713.93c0,-51.64 42.01,-93.71 93.68,-93.71zm3053.66 450.66c0,-123.68 -0.01,-247.35 -0.01,-371.04 0,-51.58 42.04,-93.63 93.65,-93.63 51.59,0 93.62,42.04 93.62,93.63 0,123.7 0.04,247.36 0.04,371.04 0,240.28 -196.43,436.64 -436.69,436.64 -240.25,0 -436.67,-196.37 -436.67,-436.64 0,-123.68 0.04,-247.35 0.04,-371.04 0,-51.58 42.02,-93.63 93.63,-93.63 51.59,0 93.64,42.04 93.64,93.63 0,123.7 -0.03,247.36 -0.03,371.04 0,136.89 112.52,249.39 249.39,249.39 136.89,0 249.39,-112.47 249.39,-249.39zm639.84 -371.25c72.59,-51.08 159.66,-79.41 250.45,-79.41 240.28,0 436.67,196.41 436.67,436.68l0 371.02c0,51.61 -42.03,93.63 -93.67,93.63 -51.59,0 -93.65,-42.02 -93.65,-93.63l0 -371.02c0,-136.86 -112.5,-249.32 -249.34,-249.32 -136.86,0 -249.35,112.44 -249.35,249.32l0 370.96c0,51.67 -42.01,93.7 -93.67,93.7 -51.66,0 -93.66,-42.03 -93.66,-93.7l0 -713.93c0,-51.64 42,-93.71 93.66,-93.71 46.8,0 85.67,34.51 92.57,79.41zm1720.93 797.31c-15.93,-14.6 -26.29,-34.05 -29.44,-55.15 -78.84,58.74 -175.11,91.3 -275.84,91.3 -255.25,0 -462.2,-206.94 -462.2,-462.21 0,-255.22 206.95,-462.2 462.2,-462.2 100.28,0 196.14,32.3 274.79,90.53l0 -313.6c0,-51.62 42.09,-93.67 93.69,-93.67 51.62,0 93.71,42.04 93.71,93.67l-0.02 1044.67 -0.28 5.12 -0.54 4.93 -1.05 6.26 -1.13 4.88 -1.93 6.46 -1.61 4.37 -1.95 4.54 -2.02 4.12 -1.97 3.61 -2.39 3.92 -2.72 4.01 -2.94 3.87 -3.78 4.45 -3.14 3.27 -2.46 2.34 -4.43 3.91 -1.61 1.28 -5.41 3.96 -4.31 2.7 -5.26 2.94 -4.12 2.02 -4.33 1.81 -4.2 1.55 -4.42 1.39 -5.1 1.28 -6.27 1.22 -4.78 0.62 -5.16 0.39 -4.86 0.09 -4.88 -0.15 -4.12 -0.33 -5.16 -0.68 -4.94 -0.91 -4.26 -1.04 -4 -1.14 -4.39 -1.5 -4.84 -1.93 -3.62 -1.65 -4.38 -2.26 -3.94 -2.31 -3.38 -2.18 -3.53 -2.54c-2.48,-1.8 -4.84,-3.76 -7.09,-5.83l-0.18 -0.18zm-30.49 -429.6c-1.89,-150.35 -124.4,-271.3 -274.79,-271.3 -151.82,0 -274.85,123.04 -274.85,274.84 0,151.82 123.03,274.85 274.85,274.85 150.39,0 272.9,-120.94 274.79,-270.71l0 -7.68zm-4567.09 -775.42c51.62,0 93.7,42.03 93.7,93.67l0 1042.27c0,51.62 -42.07,93.69 -93.65,93.69 -51.65,0 -93.75,-42.03 -93.75,-93.69l0 -1042.27c0,-51.62 42.1,-93.67 93.7,-93.67zm5455.4 515.67c-135.98,1.15 -247.27,113.2 -247.27,249.3l0 370.96c0,51.67 -41.97,93.7 -93.65,93.7 -51.65,0 -93.67,-42.03 -93.67,-93.7l0 -713.93c0,-51.64 42.02,-93.71 93.67,-93.71 46.79,0 85.67,34.51 92.57,79.39 72.57,-51.09 159.64,-79.42 250.46,-79.39l75.16 0c51.62,0.03 93.69,42.09 93.69,93.71 0,51.63 -42.07,93.71 -93.7,93.71l-75.98 0 -1.28 -0.04zm-4633.17 -198.92c-255.24,0 -462.2,206.98 -462.2,462.2 0,255.27 206.96,462.21 462.2,462.21 100.76,0 197.05,-32.59 275.88,-91.31 6.73,45.08 45.69,79.78 92.61,79.78 51.66,0 93.7,-42.03 93.7,-93.7l0 -713.93c0,-51.64 -42.04,-93.71 -93.7,-93.71 -46.92,0 -85.88,34.7 -92.61,79.8 -78.83,-58.75 -175.12,-91.34 -275.88,-91.34zm-3631.85 460.83l0 2.74c0,151.44 -123.77,273.48 -274.84,273.48 -151.8,0 -274.85,-123.03 -274.85,-274.85 0,-151.8 123.05,-274.84 274.85,-274.84 151.07,0 274.84,122.04 274.84,273.47zm3339.15 -5026.97c871.74,0 1578.45,706.63 1578.45,1578.41 0,871.74 -706.71,1578.43 -1578.45,1578.43 -871.73,0 -1578.44,-706.69 -1578.44,-1578.43 0,-871.79 706.71,-1578.41 1578.44,-1578.41zm2219.39 -452.1c219.24,173.32 532.66,155.64 729.9,-41.61 214.49,-214.49 214.49,-562.11 0,-776.6 -214.49,-214.49 -562.2,-214.53 -776.65,-0.04 -42.17,42.09 -42.19,110.98 -0.04,153.11 42.15,42.22 110.88,42.13 153.13,-0.06 129.92,-129.93 340.55,-129.79 470.44,0.11 129.9,129.89 129.98,340.52 0,470.41 -129.88,129.95 -340.43,129.84 -470.33,-0.04 -70.06,-70.07 -184.63,-70.03 -254.61,0.04l-58.93 58.89c-38.59,-17.53 -81.32,-27.29 -126.27,-27.29 -1186.76,0 -2585.87,0 -3772.6,0 -169.11,0 -307.55,138.38 -307.55,307.55 0,169.18 138.78,307.63 307.55,307.63l363.43 0c-413.3,398.89 -670.48,958.6 -670.48,1578.41 0,1211.48 982.13,2193.61 2193.61,2193.61 619.82,0 1179.56,-257.14 1578.45,-670.47l0 362.84c0,169.22 138.4,307.63 307.59,307.63 169.17,0 307.61,-138.41 307.61,-307.63l0 -1885.98 0 -1874.01 0 -12.03c0,-45.36 -9.96,-88.55 -27.81,-127.44 22.16,-20.6 29.17,-39.55 53.56,-17.03zm-1182.16 1708.98c44.76,0 81.04,36.33 81.04,81.09 0,44.76 -36.28,81.01 -81.04,81.01 -44.76,0 -81.05,-36.25 -81.05,-81.01 0,-44.76 36.29,-81.09 81.05,-81.09zm-1153.38 -147.82c99.7,0 180.39,80.71 180.39,180.31 0,99.68 -80.68,180.4 -180.39,180.4 -99.63,0 -180.38,-80.72 -180.38,-180.4 0,-99.59 80.75,-180.31 180.38,-180.31zm42.68 73.81c20.3,-12.56 52.54,2.52 71.96,33.73 19.46,31.37 18.8,66.89 -1.5,79.59 -20.3,12.59 -52.57,-2.52 -71.96,-33.73 -19.53,-31.25 -18.8,-66.85 1.5,-79.59zm-461 399.25c51.23,0 92.7,41.41 92.7,92.56 0,51.29 -41.47,92.73 -92.7,92.73 -51.15,0 -92.62,-41.44 -92.62,-92.73 0,-51.15 41.47,-92.56 92.62,-92.56zm-632.43 -198.64c137.52,-60.46 270.85,-41.73 311.7,72.95 48.82,180.78 132.97,318.34 252.65,412.72 281.87,206.71 581.36,189.98 898.43,-50.57 -178.09,245.7 -398.89,379.43 -662.56,401.48 -438.83,14.35 -742.99,-178.41 -912.45,-578.33 -36.51,-86.16 11.46,-198.9 112.23,-258.26z"/>
 </g>
</svg>
